<svg width="37" height="38" viewBox="0 0 37 38" fill="none" xmlns="http://www.w3.org/2000/svg">
<g clip-path="url(#clip0_16_45)">
<path d="M27.5188 28.6283L32.0466 4.77619H37V1.02698H29.8822L28.8148 6.6497L0 6.62197L3.06344 28.6282H27.5188V28.6283ZM28.1033 10.3983L25.3544 24.8791H5.37665L3.35748 10.3744L28.1033 10.3983Z" fill="#FFB1AE"/>
<path d="M23.8388 38C26.1333 38 28 35.9267 28 33.3783C28 30.8299 26.1333 28.7567 23.8388 28.7567H8.1612C5.86673 28.7567 4 30.8299 4 33.3783C4 35.9267 5.86669 38 8.1612 38C10.4557 38 12.3224 35.9267 12.3224 33.3783C12.3224 32.7663 12.2144 32.1818 12.019 31.6467H19.981C19.7856 32.1818 19.6776 32.7663 19.6776 33.3783C19.6777 35.9267 21.5444 38 23.8388 38ZM9.72028 33.3783C9.72028 34.3331 9.02089 35.1099 8.1612 35.1099C7.30152 35.1099 6.60209 34.3331 6.60209 33.3783C6.60209 32.4235 7.30148 31.6467 8.1612 31.6467C9.02089 31.6467 9.72028 32.4235 9.72028 33.3783ZM25.3979 33.3783C25.3979 34.3331 24.6986 35.1099 23.8389 35.1099C22.9792 35.1099 22.2798 34.3331 22.2798 33.3783C22.2798 32.4235 22.9792 31.6467 23.8389 31.6467C24.6986 31.6467 25.3979 32.4235 25.3979 33.3783Z" fill="#FFB1AE"/>
</g>
<defs>
<clipPath id="clip0_16_45">
<rect width="37" height="38" fill="white"/>
</clipPath>
</defs>
</svg>
