<svg width="120" height="120" viewBox="0 0 120 120" fill="none" xmlns="http://www.w3.org/2000/svg">
<g clip-path="url(#clip0_34_183)">
<path d="M0 0H120V120H0V0Z" fill="#FFEEE2"/>
<path d="M69.3164 34.1602H69.7852L70.7227 34.3359L71.4258 34.6289L71.9531 35.0391L72.2461 35.2734L72.7734 35.9766L73.2422 36.9727L73.4766 37.8516V39.3164L73.2422 40.1367L72.8906 40.7227L72.3633 41.3086L71.8359 41.6602L71.25 41.8359L71.0156 41.8945L71.0742 42.2461L71.6016 43.5352L71.8945 44.6484L72.0117 45.6445V46.2891L71.8359 48.1055L71.4844 49.6289L71.0156 50.8008L70.5469 51.6797L70.1953 52.1484L69.7266 52.3828L69.082 53.6133L68.5547 54.3164L67.9102 55.0195L67.207 55.6641L66.4453 56.1914L66.0938 56.4258L66.4453 56.8945L66.7969 57.3047L68.8477 57.6562L71.1328 57.9492L72.1289 57.8906L73.2422 57.6562L74.1797 57.3047L75.6445 56.7188L76.4062 56.543L77.5195 56.4844L78.2812 56.6016L78.75 56.8359L79.2188 57.2461L79.6289 58.0664L79.7461 58.8281V59.6484L79.5703 60.4688L79.1602 61.582L78.6914 62.5195L78.2812 63.0469L77.8125 63.457L76.9336 64.043L76.1719 64.5117L75.1758 65.0391L73.8281 65.5664L73.125 65.7422L72.2461 65.8594H71.0156L70.6055 65.8008L70.957 66.2695L71.6016 67.0312L72.1289 67.6758L73.0664 68.6719L73.4766 69.1406L74.9414 70.6055L75.4102 71.0156L75.9375 71.4844L76.3477 71.9531L76.875 72.4805L77.4023 73.125L77.9297 73.8281L78.1641 74.1211L78.3398 74.1797L78.457 74.1211L78.9844 74.1797L79.2773 74.4727L79.5703 74.8828L79.6289 75.0586V76.0547L79.4531 76.4062L79.2188 76.582L78.6328 76.6992V77.1094L78.3984 77.4023L77.9883 77.5781L77.6953 77.6367H77.168L77.0508 78.1641L76.6406 78.5156L76.4062 78.6328H75.8203L75.4688 78.5742V78.9258L75.0586 79.3945L74.5898 79.6875L74.1211 79.8047H73.4766L73.3594 80.0977L73.125 80.3906L72.5391 80.7422L72.0117 80.918L71.7188 82.793L71.3672 83.8477L70.8398 85.0195L70.4297 85.6641L69.9609 86.25L69.375 86.7773L68.4961 87.1875L67.207 87.6562L66.2695 87.8906H65.0977L64.1602 87.7148L63.2812 87.3633L62.6367 87.0117L62.1094 86.543L61.6992 85.8984L61.4062 85.0781L61.0547 83.9648L60.6445 82.9102V82.793L60.1172 82.9102L59.5312 82.9688L59.2383 84.3164L58.8867 85.3711L58.5352 86.0156L58.0078 86.6016L57.4805 86.9531L56.8359 87.2461L55.5469 87.5977L54.8438 87.7148L54.1992 87.7734H53.0859L52.207 87.6562L51.2109 87.3633L50.3906 86.8945L49.6875 86.1914L49.043 85.1367L48.6328 84.1406L48.457 83.3789V81.2695L47.7539 80.918L47.4609 80.5664L47.4023 80.2148L46.8164 80.5664L46.4062 80.6836H45.8789L45.5273 80.5078L45.1172 80.0391L45.0586 79.8633V78.9258L44.2383 79.1602H43.5352L42.9492 78.9258L42.5977 78.5156L42.4805 78.2227V77.6367L42.3633 77.6953H41.7188L41.4844 77.4609L41.3086 77.0508L40.6641 76.9336L40.2539 76.6406L40.1367 76.4062V75.8789L40.2539 75.5859L39.7852 75.5273L39.3164 75.293L39.1406 75V74.4727L39.4336 73.8867L39.7852 73.4766L40.1953 73.2422H40.3125L40.4297 73.0078L41.0742 72.6562L41.8359 72.0703L43.9453 70.1367L45.5859 68.7305L46.1719 68.2031L46.6406 67.793L47.7539 66.6797L48.1641 66.2109L48.9258 65.2734L46.875 65.5078H45.5859L44.6484 65.3906L43.7695 65.1562L42.8906 64.8047L42.1875 64.3945L41.543 63.8672L40.957 63.2812L40.4883 62.5781L40.2539 61.9336L40.1953 61.582V60.6445L40.3711 60L40.7227 59.3555L41.3086 58.7695L42.2461 58.3008L43.2422 58.0664L44.7656 57.8906L47.6367 57.7148L49.6289 57.4805L53.0273 56.9531L53.7305 56.7773L53.9062 56.6016L53.0859 55.957L52.5 55.4883L51.6797 54.7852L51.2695 54.3164L50.7422 53.6719L50.0391 52.5586L49.6289 51.9141L49.1602 51.1523L48.6914 50.2148L48.2812 49.1016L48.0469 47.9297L47.8711 46.1133V45.4102L48.0469 44.0039L48.3398 42.9492L48.6328 42.3047L48.8086 41.8945L48.457 41.7773L47.8711 41.4258L47.2852 40.8398L46.8164 40.0195L46.5234 39.1406L46.4648 38.8477V37.4414L46.6992 36.7969L47.0508 36.2695L47.4609 35.918L48.3398 35.3906L49.2188 34.9219L50.0391 34.6289L50.7422 34.5117H51.2695L52.207 34.7461L52.793 35.0977L53.2617 35.5078L53.6719 36.1523L53.9648 36.6797L54.668 36.3867L55.7812 35.9766L57.1289 35.625L58.8867 35.332L59.707 35.2734H61.2891L62.2852 35.3906L63.3984 35.6836L64.5117 36.0938L65.9766 36.7969L66.0938 36.6211L66.3281 36.0352L66.6797 35.5078L67.2656 34.9219L68.0273 34.4531L68.4961 34.2773L69.3164 34.1602Z" fill="#2F2E2F"/>
<path d="M59.3555 41.4258L59.5898 41.6602L60.1172 42.4805L60.7617 43.3008L61.875 44.4141L62.6367 45L63.5156 45.5273L64.3359 45.9375L65.918 46.4648L67.793 46.9336L68.5547 47.2266L68.9648 47.5781L69.3164 48.2812L69.4336 48.9844V49.9805L69.3164 51.7383L69.082 52.5L68.4961 53.4375L67.9688 54.082L67.4414 54.668L66.8555 55.1953L65.9766 55.7812L64.8633 56.3672L63.3398 56.9531L62.1094 57.3047L60.7031 57.5391H58.7109L57.5391 57.3633L56.4258 57.0703L55.3711 56.6016L53.9648 55.6641L53.1445 55.0195L52.3242 54.3164L51.5039 53.4375L50.8594 52.6172L50.4492 52.0312V49.4531L50.625 47.8711L50.8008 46.9922L50.918 46.9336L51.6211 47.3438L52.0898 47.4609L52.7344 47.4023L53.4375 47.168L54.4336 46.6406L55.4297 45.9375L56.25 45.2344L56.6016 44.8828H56.7188V44.7656H56.8359V44.6484H56.9531L57.0703 44.4141L57.5977 43.8867L58.125 43.2422L58.8867 42.1875L59.3555 41.4258Z" fill="#E4C3AC"/>
<path d="M51.8555 62.2266L52.3828 62.3438L53.6719 62.8125L56.0156 63.5156L56.543 63.6914L56.0742 64.8047L55.4297 66.5625L54.3164 69.5508L53.5547 71.4844L52.6172 73.7109L51.6797 75.7617L50.6836 77.9297L50.332 78.9258L50.2148 79.2773H49.5117L47.9883 79.043L47.2266 78.8086L46.5234 78.3984L45.9375 77.9297L45.4102 77.5195L45 77.0508L45.1758 76.6992L44.7656 76.8164L44.3555 75.9961L44.2969 75.7031L44.5312 75.2344L45.5273 74.2969L46.2891 73.5938L46.8164 73.0664L47.2266 72.5977L47.7539 72.0117L48.2812 71.3672L48.9258 70.5469L49.6875 69.4922L50.4492 68.2617L51.2109 66.8555L52.0312 65.1562L52.793 63.2812V63.0469L52.3242 63.9844L51.6797 65.2148L50.8594 66.6211L50.0977 67.9102L49.2188 69.1992L48.2812 70.4297L47.5195 71.3672L46.9922 72.0117L46.2891 72.7734L46.2305 72.8906H46.1133V73.0078H45.9961L45.8789 73.2422L44.707 74.4141L44.2969 74.8828L44.0039 75.2344L43.7695 75.293L42.832 74.9414L41.7188 74.3555L41.1328 73.8867L40.8398 73.5938L40.957 73.3594L41.6602 72.8906L42.5977 72.1875L43.3594 71.4844L44.0039 70.957L44.4141 70.5469L45.0586 70.0195L45.9375 69.2578L46.8164 68.4375L48.1641 67.0898L48.6914 66.4453L49.3359 65.7422L49.8633 65.0977L50.6836 64.043L51.2695 63.1641L51.7969 62.2852L51.8555 62.2266Z" fill="#F2DDDB"/>
<path d="M56.6016 63.6914L58.5938 64.1602L60.1758 64.3359L60.0586 66.0352L59.8242 70.0781L59.7656 70.7227L59.6484 73.3008V76.1133L59.7656 77.9297L60.0586 80.2734L60.293 80.9766L60.6445 81.2109L60.8789 81.2695H61.6406L61.6992 81.3867L61.5234 81.6797L60.9375 82.1484L60.293 82.4414L59.707 82.5L59.4141 82.3828L59.2383 82.1484H59.1211L58.7695 82.5586L58.3008 82.793L57.832 82.9102H57.2461L56.7773 82.7344L56.4844 82.4414L56.4258 82.3242V81.7383L56.1914 81.7969L55.8984 82.2656L55.7227 82.3828H55.1367L54.6094 82.207L54.1992 81.9141L53.9648 81.4453V81.3281H53.7891L53.7305 81.7969L53.3789 82.0898L53.2031 82.1484H52.6172L52.2656 81.9727L52.0312 81.6211L51.9141 81.0352V80.5078L52.8516 80.625L54.375 80.9766L56.3086 81.2695L57.3047 81.5625H58.3594L58.9453 81.3867L59.6484 81.0352L59.8828 80.7422V80.5078L59.3555 80.6836L58.7109 80.918H57.3047L56.3086 80.7422L55.1367 80.6836L54.2578 80.4492L53.3789 80.0977L52.6758 79.9219L51.3281 79.8047L50.8594 79.6875L50.6836 79.5117V79.1016L51.0938 78.1055L51.9727 76.2305L52.6172 74.8242L53.6719 72.4219L54.668 69.9609L55.3125 68.2031L55.957 66.2695L56.543 64.1016L56.6016 63.6914Z" fill="#F2DDDB"/>
<path d="M62.9297 64.1016H63.3398L63.75 65.332L65.2734 69.1406L65.9766 70.8398L66.6211 72.2461L67.207 73.3594L68.0273 74.7656L68.7891 76.1133L69.375 77.2266L69.7852 77.9883L69.8438 78.1055L68.7891 78.8086L68.0273 79.1602L66.6797 79.5703L65.3906 79.8633L64.043 80.0977L62.6953 80.4492L61.6406 80.7422L61.0547 80.8008L60.7617 80.6836L60.6445 80.332L60.4688 78.9844L60.3516 77.1094L60.2344 74.8242V72.3047L60.3516 69.7852L60.4102 64.3945L60.4688 64.3359L61.6406 64.2773L62.9297 64.1016Z" fill="#F2DDDB"/>
<path d="M65.5078 56.7773L65.8008 56.8359L66.3867 57.832L66.9727 59.2383L67.3828 60.4688L67.6758 61.582L67.6172 61.875L66.5039 62.4023L64.5117 63.1641L63.3398 63.5156L62.2852 63.6914L61.6406 63.75H59.8242L58.5352 63.5742L56.25 63.1055L52.3242 62.0508L52.0312 61.9336L52.4414 61.1133L52.9688 60.1758L53.4375 59.2383L53.9062 58.1836L54.2578 57.2461L54.375 56.8359L54.7266 56.9531L55.8398 57.4219L56.9531 57.7734L58.125 58.0078L59.0625 58.125H61.3477L62.4609 57.9492L63.9258 57.5391L65.0391 57.0703L65.5078 56.7773Z" fill="#F2DDDB"/>
<path d="M77.1094 56.9531L77.9297 57.0117L78.457 57.2461L78.8672 57.5977L79.1602 58.1836L79.2188 58.5352V59.5898L78.9844 60.5273L78.5156 61.5234L78.1055 62.0508L77.3438 62.8125L76.2305 63.6328L75.293 64.2188L74.4141 64.6875L73.3008 65.0977L72.1289 65.332H70.7812L70.1367 65.2734L69.7266 64.6875L68.8477 62.9883L68.3789 61.8164L67.207 58.3008L66.9727 57.832V57.7148L67.5586 57.8906L68.7891 58.1836L69.7266 58.3594L70.8398 58.4766H71.8359L72.8906 58.3594L73.8281 58.0664L74.7656 57.6562L75.9375 57.1875L76.6406 57.0117L77.1094 56.9531Z" fill="#E4C3AC"/>
<path d="M66.6797 62.8125H66.7969L67.1484 63.9844L67.5586 65.0391L68.2617 66.5039L69.0234 67.793L69.9023 69.082L70.6641 70.1367L71.25 70.8984L71.7188 71.4844L72.3633 72.2461L72.8906 72.832L73.3008 73.3008L73.9453 74.0039L75.7617 75.8203L76.2305 76.4062L76.1133 76.6992L75.7617 77.1094L74.5312 77.5781L73.125 78.0469L72.4805 78.2812L72.2461 78.3398H71.1914L70.4883 78.1055L69.9609 76.875L69.4336 75.8789L68.4961 74.3555L67.7344 73.125L66.9727 71.7773L66.5039 70.8398L65.918 69.5508L65.0391 67.3828L64.3945 65.918L63.6328 64.1602L63.6914 63.9844L64.8633 63.6328L66.3281 62.9883L66.6797 62.8125Z" fill="#F2DDDB"/>
<path d="M53.3789 57.5977H53.5547L53.4961 57.8906L53.0273 59.1211L52.5586 60.0586L52.0898 60.9375L51.2109 62.3438L50.5664 63.2812L49.9219 64.1016L49.6289 64.3359L48.3984 64.6289L46.875 64.8047H46.2305L45.1172 64.6875L44.0039 64.3945L43.125 64.043L42.1875 63.5742L41.543 63.1055L41.1328 62.6367L40.8398 62.0508L40.7227 61.4062L40.7812 60.4102L40.957 59.8242L41.3086 59.3555L41.8945 59.0039L42.4805 58.7695L43.5352 58.5352L44.5312 58.418L47.3438 58.3008L49.2773 58.125L52.6172 57.7148L53.3789 57.5977Z" fill="#E4C3AC"/>
<path d="M68.9648 33.9844H70.1367L71.0742 34.2188L71.8945 34.6875L72.3047 35.0391V35.1562L72.5391 35.2734L72.9492 35.8594L73.418 36.7969L73.6523 37.5586L73.7109 37.8516V39.2578L73.4766 40.1367L73.125 40.7812L72.4219 41.543L71.8359 41.8945L71.3672 42.0703L71.4258 42.4805L71.7188 43.1836L71.9531 43.9453L72.1289 44.9414L72.1875 45.0586V47.0508L71.9531 48.6328L71.7773 49.3945L71.4258 50.4492L71.25 50.918H71.1328L71.0742 51.1523L70.6641 51.9727L70.1953 52.3828L69.8438 52.6758L69.375 53.5547L68.6719 54.5508L67.9102 55.3125L67.3828 55.7812L66.6797 56.25H66.5625V56.3672L66.4453 56.4258L66.5039 56.7188L66.8555 57.0703L68.4961 57.4219L70.0781 57.5977L71.0156 57.7148H71.6602L72.5391 57.5977L73.6523 57.3047L75.3516 56.6016L76.2891 56.3672L76.6992 56.3086H77.6953L78.2227 56.3672L78.9258 56.7188L79.3359 57.1289L79.6875 57.6562L79.8633 58.2422L79.9219 58.4766V59.8242L79.6875 60.7617L79.1016 62.2266L78.8086 62.6367L78.6328 62.9297L78.1055 63.457L77.4609 63.9258L76.5234 64.5117L75.6445 65.0391L74.2969 65.625L73.0664 65.9766L72.1289 66.0938H71.1914L71.0742 66.0352L71.3086 66.4453L71.543 66.6797L71.7188 66.9141V67.0312L71.9531 67.0898L72.3047 67.5V67.6172H72.4219L72.6562 67.9102V68.0273H72.7734L73.3008 68.6719L74.2383 69.6094V69.7266L74.4727 69.8438L74.8828 70.2539L75.3516 70.6641L76.0547 71.3086V71.4258L76.2891 71.543L76.5234 71.8359L77.1094 72.4219V72.5391H77.2266L77.4609 72.8906L77.8711 73.3594L78.1641 73.7695V73.8867H78.8086L79.2773 74.1211L79.6875 74.6484L79.8047 74.8828L79.8633 75.9961L79.6875 76.4648L79.3359 76.7578L78.9844 76.875L78.8086 77.1094L78.6914 77.4023L78.3398 77.6953L77.4609 77.9297L77.2852 78.1055L77.1094 78.457L76.6992 78.75L76.3477 78.8672L75.7617 78.9258L75.5859 79.1016L75.293 79.5117L75 79.6875H74.8828V79.8047L74.5898 79.9219L73.8281 79.9805L73.6523 80.0391L73.5938 80.1562H73.4766L73.3594 80.4492L73.0078 80.7422L72.4805 80.9766L72.1875 81.0938L71.9531 82.7344L71.6016 83.8477L71.3086 84.6094L70.6055 85.7812L70.1367 86.4258H70.0195L69.9609 86.6016L69.375 87.0117L68.5547 87.4219L66.7969 88.0078L66.3281 88.125H64.9219L63.6328 87.7734L62.8125 87.3633L62.5195 87.1875L61.9922 86.7188L61.6406 86.25L61.2891 85.4883L61.1133 84.7266L60.9375 84.2578L60.7617 83.8477L60.5273 83.2031V83.0859H59.6484V83.4961L59.2969 84.9609L58.7695 86.0742L58.3008 86.6602L57.9492 86.9531L56.8359 87.4805L55.7227 87.7734L55.2539 87.8906L54.082 88.0078H53.2031L52.207 87.8906L51.0352 87.5391L50.5078 87.2461L49.9219 86.7773L49.3359 86.0742V85.957H49.2188L48.8672 85.2539L48.6914 84.9609L48.3984 84.1406L48.2812 83.6133L48.2227 82.9102V81.4453L47.8125 81.2109V81.0938H47.6367L47.2852 80.6836L46.9336 80.7422L46.582 80.8594L45.9961 80.918L45.5273 80.7422L45.2344 80.5664L44.8828 79.9805L44.8242 79.2188H44.6484L44.7656 78.9844L45.0586 78.9258L45.1172 79.8633L45.293 80.2148L45.7031 80.5664L45.8789 80.625H46.4062L47.0508 80.3906L47.2852 80.2148H47.4023L47.6367 80.7422L48.1641 81.0938L48.457 81.2109L48.5156 81.3867V83.3789L48.75 84.3164L49.2188 85.3711L49.8047 86.25L50.4492 86.8945L51.3867 87.3633L52.207 87.5977L53.0859 87.7148H54.1992L55.1953 87.5977L56.4258 87.3047L57.1289 87.0703L57.8906 86.6602L58.3594 86.1914L58.8281 85.3711L59.1797 84.3164L59.4727 82.9688L59.5312 82.9102L60.3516 82.793H60.6445L61.2305 84.2578L61.582 85.4883L61.9922 86.3086L62.4023 86.7773L63.0469 87.1875L63.9844 87.5977L64.6875 87.7734L65.0977 87.832H66.2695L67.3828 87.5391L68.7891 87.0117L69.4336 86.6602L70.0195 86.1328L70.4883 85.4883L70.957 84.668L71.543 83.2031L71.7773 82.1484L71.9531 80.918L72.3633 80.7422L72.9492 80.4492L73.2422 80.1562L73.4766 79.8047L74.4141 79.6875L75 79.3945L75.4102 78.9258L75.4688 78.5742H76.4062L76.875 78.2812L77.0508 77.9883L77.168 77.6367L77.9883 77.5195L78.457 77.2852L78.5742 77.1094L78.6328 76.6992L79.2188 76.5234L79.5117 76.2305L79.5703 76.0547V75.0586L79.2188 74.3555L78.9844 74.2383L78.457 74.1797L78.2812 74.2383L77.9297 73.9453L77.5195 73.3594L76.9922 72.7148L76.3477 72.0117L75.0586 70.7227L74.5898 70.3125L73.0664 68.7891L72.6562 68.3203L72.0117 67.6172L71.4844 66.9727L70.7227 66.0938L70.5469 65.8594L70.6055 65.7422L71.0156 65.8008H72.2461L73.3594 65.625L74.1797 65.3906L75.5273 64.8047L76.582 64.2188L77.6367 63.5156L78.2227 63.0469L78.6328 62.5195L79.1016 61.582L79.5703 60.293L79.6875 59.6484V58.8281L79.5117 57.8906L79.1602 57.2461L78.75 56.8945L78.2812 56.6602L77.3438 56.543L76.4062 56.6016L75.293 56.8945L73.5938 57.5977L72.4805 57.8906L71.4844 58.0078L70.6641 57.9492L68.0859 57.5977L66.7969 57.3633L66.3281 56.8359L66.0352 56.4258L66.6211 56.0156L67.3242 55.4883L68.0273 54.8438L68.6133 54.1992L69.1992 53.3203L69.7266 52.3242L70.1953 52.0898L70.7227 51.2695L71.1914 50.2734L71.4844 49.3945L71.7773 48.1055L71.9531 46.2891V45.6445L71.7773 44.3555L71.4258 43.2422L70.957 42.1289L71.0156 41.8359L71.6602 41.6602L72.2461 41.3672L72.7148 40.8984L73.125 40.2539L73.3594 39.6094L73.418 39.3164V37.8516L73.1836 36.9727L72.7148 35.9766L72.3047 35.4492L72.0117 35.1562L71.6016 34.8047L70.8984 34.4531L70.1953 34.2773L69.7852 34.2188H69.3164L68.3203 34.3945L67.6172 34.7461L67.0898 35.1562L66.6797 35.5664L66.3281 36.1523L66.0352 36.8555L64.9219 36.3281L63.75 35.8594L62.5781 35.5078L61.9922 35.3906L61.2891 35.332H59.707L58.5352 35.4492L57.1289 35.6836L55.7812 36.0352L54.668 36.4453L53.9648 36.7383L53.6719 36.2695L53.3203 35.6836L52.9688 35.2734L52.3242 34.8633L51.6211 34.6289L51.2695 34.5703H50.7422L49.8633 34.7461L49.1016 35.0391L48.1055 35.5664L47.2266 36.1523L46.875 36.5625L46.6406 37.0312L46.5234 37.4414V38.8477L46.7578 39.7266L47.2266 40.6641L47.7539 41.25L48.2227 41.6016L48.8086 41.8945L48.75 42.1875L48.5156 42.6562L48.2227 43.5352L48.0469 44.2969L47.9297 45.4102V46.1133L48.1055 47.9297L48.3398 49.1016L48.75 50.2148L49.2188 51.1523L49.7461 52.0312L50.0977 52.5586L50.6836 53.4961L51.2695 54.2578L51.9727 54.9609L52.6758 55.6055L53.6133 56.3086L53.9648 56.6016L53.7305 56.8359L53.0273 57.0117L49.2188 57.5977L46.9336 57.832L44.7656 57.9492L43.2422 58.125L42.2461 58.3594L41.3086 58.8281L40.7812 59.3555L40.4297 60L40.2539 60.6445V61.582L40.4297 62.2852L40.7227 62.8711L41.1914 63.457L41.7188 63.9844L42.5391 64.5703L43.418 64.9805L44.3555 65.2734L44.9414 65.3906L45.5859 65.4492H46.875L48.3984 65.2734L48.9844 65.2148L48.6328 65.6836L48.1055 66.3281L47.2852 67.207L46.2891 68.2031L45.8203 68.6133L45 69.3164L44.3555 69.8438L43.4766 70.6641L43.0078 71.0742L42.1289 71.8945L41.25 72.5977L40.3711 73.125L40.1367 73.3594L39.668 73.6523L39.2578 74.2969L39.1992 74.4727V75L39.3164 75.293L39.6094 75.4102L40.2539 75.5859L40.1953 75.8789V76.4062L40.3711 76.6992L40.6641 76.875L41.3086 76.9922L41.6016 77.5781L41.7188 77.6367H42.4805L42.5977 78.3984L42.832 78.75L43.1836 78.9844L43.5352 79.1016H44.5898V79.2188L44.2383 79.3359H43.418L42.8906 79.1016L42.5391 78.8672L42.3047 78.3398L42.2461 77.9883L41.7188 77.8711L41.4258 77.6953L41.25 77.4609L41.1914 77.2852L40.4297 77.0508L40.1367 76.8164L39.9609 76.5234L39.9023 75.8203V75.7031L39.6094 75.6445L39.1992 75.4102L39.1406 75.2344H39.0234L38.9648 75V74.4141L39.1992 73.8281L39.7266 73.2422L40.2539 72.8906L40.8984 72.4805L41.6016 71.9531L42.0703 71.543L42.2461 71.3672H42.3633L42.4219 71.1914L42.8906 70.7812L43.3594 70.4297L43.7695 69.9609L43.9453 69.9023V69.7852L44.3555 69.4922L44.5898 69.2578L44.8828 69.0234H45V68.9062L45.6445 68.3789L45.8203 68.2031H45.9375L45.9961 68.0273L46.2305 67.8516H46.3477V67.7344L46.8164 67.3242L47.0508 67.0312L47.4023 66.7383L47.8125 66.2109L48.1055 66.0938V65.918H48.2227V65.8008H48.3398L48.3984 65.5664L46.875 65.6836L46.4648 65.7422H45.7617L44.5312 65.5664L43.6523 65.332L42.8906 65.0391L41.9531 64.4531L41.3672 63.9258L40.7812 63.3398L40.5469 63.0469L40.0781 62.0508L39.9609 61.582L40.0195 60.6445L40.1367 60L40.4883 59.3555L41.0156 58.7109L41.543 58.3594L42.7148 57.9492L44.2383 57.7148L46.3477 57.5977L48.3984 57.4219L50.6836 57.1289L51.6211 56.9531L52.8516 56.7773L53.4961 56.6016L53.2617 56.3086L53.0859 56.25V56.1328L52.8516 56.0156L51.9141 55.3125L51.4453 54.9023L51.2109 54.6094V54.4922L50.9766 54.375L50.625 53.8477L50.2734 53.3789L49.6875 52.3828L49.2188 51.7383L48.6914 50.8008L48.3398 49.9219L48.0469 49.043L47.8125 47.8125L47.6953 46.8164V44.8242L47.8711 43.8867L48.1641 42.7734L48.3984 42.3047V41.8945L47.8711 41.7188L47.3438 41.25L47.0508 40.8984L46.6992 40.3711L46.4062 39.6094L46.2891 38.9648L46.2305 38.0273L46.2891 37.2656L46.5234 36.6211L46.875 36.1523L47.3438 35.7422L47.8125 35.4492H47.9297V35.332L48.8086 34.8633L49.8047 34.4531L50.3906 34.3359H51.6211L52.5 34.6289L53.0859 35.0391L53.3789 35.332L53.4961 35.5664H53.6133L53.9062 36.0938V36.2695L54.1992 36.3281L55.3125 35.8594L56.543 35.5078L58.4766 35.1562L59.7656 35.0391H61.2305L62.4609 35.2148L63.2227 35.3906L64.2188 35.7422L65.4492 36.2695L65.625 36.3867H65.918L66.2695 35.6836L66.6797 35.1562H66.7969V35.0391L67.0898 34.8047H67.207V34.6875L67.9688 34.2188L68.6719 34.043L68.9648 33.9844Z" fill="#F8E9E7"/>
<path d="M69.4922 80.4492L69.7852 80.5078L70.4883 80.8008L71.4844 80.9766V81.5625L71.1914 83.0273L70.8398 83.9648L70.5469 84.5508L70.0781 85.1953L69.5508 85.7812L68.7305 86.3672L67.9102 86.7773L66.9727 87.1289L66.0938 87.2461H65.332L64.1602 87.0117L63.2227 86.6602L62.5781 86.1914L62.2266 85.7812L61.875 85.0781L61.6992 84.2578L61.4062 82.3828L61.6992 82.0898L61.9336 81.9141L62.4609 82.2656L63.0469 82.3828L63.8672 82.1484H64.043L64.3359 82.4414L64.5117 82.5H65.332L66.0352 82.3242L66.5039 82.0312L66.7383 81.9141L67.1484 82.0312H67.7344L68.3789 81.8555L68.9062 81.5039L69.2578 81.0352L69.4922 80.4492Z" fill="#E4C3AC"/>
<path d="M96.5039 55.1953L96.9727 55.2539L97.3242 55.4883L97.5586 55.957L97.6758 56.4844L97.6172 57.1875L97.4414 57.832L97.7344 57.5391L98.0273 57.3633L98.6133 57.3047L98.9648 57.4805L99.3164 57.8906L99.4922 58.418L99.4336 58.9453L99.2578 59.2969L98.9062 59.707L98.3203 60.0586L97.793 60.1172L97.9102 60.293L98.6133 60.4102L98.8477 60.7031L98.9648 61.0547V61.582L98.7305 62.168L98.3203 62.5781L97.9688 62.7539H97.0898L96.5039 62.5195L96.2109 62.2266L95.9766 62.3438L95.6836 62.6367L95.2734 62.8125L94.3359 62.8711V64.2773L94.5703 65.2734L94.9219 66.3281V66.6211L94.7461 66.7383L94.4531 66.4453L94.1602 65.8594L93.9258 65.1562L93.8672 64.8047V63.457L94.043 62.9297L94.1602 62.8125L93.5742 62.3438L93.2227 61.875V61.1133L93.2812 60.9375H92.7539L92.3438 60.7617L92.0508 60.5273L91.6992 59.9414L91.6406 59.3555L91.8164 58.8867L92.2852 58.4766L92.7539 58.3008H93.0469L92.7539 57.7734L92.6953 57.5391V56.7773L92.9297 56.4258L93.3984 56.1914L93.8086 56.0742H94.2773L94.7461 56.25L95.0977 56.543L95.4492 55.8984L95.918 55.4297L96.5039 55.1953Z" fill="#2F2E2F"/>
<path d="M49.5117 81.1523L49.7461 81.2695L50.0391 81.5039L50.1562 81.5625H50.8594L51.3281 81.3281L51.4453 81.7383L51.7383 82.3242L52.207 82.6172L52.3828 82.6758H53.2031L53.8477 82.3828L54.6094 82.6758L54.8438 82.7344H55.5469L56.0742 82.5586L56.3672 83.0273L57.0117 83.2617H57.7148L58.1836 83.1445L59.0039 82.7344L58.9453 83.0273L58.3008 84.9609L57.9492 85.6055L57.7148 85.8984L57.1289 86.3086L56.4258 86.6016L54.8438 87.0117L54.1406 87.1289H53.5547L52.3828 86.8945L51.4453 86.543L50.918 86.1914L50.332 85.6641L49.8047 85.0195L49.3359 84.1992L49.043 83.2617L48.9258 82.207V81.2695L49.5117 81.1523Z" fill="#E4C3AC"/>
<path d="M86.0156 30.293L86.6602 30.3516L87.3047 30.5859L87.9492 30.9961L88.418 31.4648L88.8867 32.4023L89.0039 32.9883V33.5742L88.7695 34.5117L88.3008 35.332L87.8906 35.8008L87.2461 36.2695L86.4844 36.6211L86.0156 36.7383H84.9023L84.1406 36.4453L83.4961 35.9766L83.0273 35.3906L82.6758 34.6289L82.5586 34.043V33.457L82.793 32.6367L83.2031 31.9336L83.7305 31.3477L84.1992 30.9375L85.1367 30.4688L86.0156 30.293Z" fill="#F3DEDC"/>
<path d="M67.6758 62.2852H67.8516L68.3789 63.5156L69.0234 64.7461L69.668 65.6836L70.4883 66.7969L71.0156 67.5L71.6016 68.2617L72.2461 69.0234L72.8906 69.7266L73.4766 70.3125L73.9453 70.7227L74.7656 71.4844L75.2344 71.8945L76.1133 72.7148L77.4023 74.0039L77.7539 74.4141L78.3984 74.8242L78.457 75.0586L78.1641 75.293L77.7539 75.3516L77.3438 75L77.4023 75.293L77.4609 75.5273L77.168 75.7617L76.7578 75.9375H76.4648L75.8203 75.1758L75.1172 74.4141L74.2969 73.5352L73.7695 72.9492L73.2422 72.3047L72.5977 71.6016L72.0703 70.957L71.4258 70.1953L70.7812 69.375L70.1953 68.6133L69.4922 67.6172L68.6133 66.2695L67.8516 64.9219L67.1484 63.3984L66.9141 62.8125L66.9727 62.6367L67.6758 62.2852Z" fill="#F2DDDA"/>
<path d="M96.3281 55.6641H96.6211L96.8555 55.957L96.9727 56.25V57.1289L96.8555 57.6562V58.2422L97.0898 58.3008L97.5 58.125L98.0859 57.7148H98.6133L98.9648 58.125V58.7109L98.6719 59.1797L98.2031 59.5898L97.7344 59.7656L97.1484 59.8242L97.3242 60.2344L97.793 60.6445L98.3789 60.9375L98.5547 61.1133V61.4648L98.3203 61.8164L98.0273 62.0508L97.8516 62.1094H97.3828L96.9141 61.875L96.4453 61.3477L96.1523 60.9375L95.8594 60.9961L95.7422 61.1719V61.7578L95.5664 62.0508L95.1562 62.2266H94.4531L94.1016 61.9922L93.8672 61.6406L93.8086 61.1133L94.1016 60.8203L94.4531 60.5859L94.6289 60.3516L94.6875 60.1172L93.6328 60.3516L92.9297 60.4102L92.6367 60.2344L92.3438 59.8828L92.2852 59.707V59.1797L92.5195 58.8867L92.8125 58.7695H93.457L93.8672 58.9453L94.8047 59.1211L94.9805 59.8242L95.2148 60.1172L95.6836 60.293L96.2109 60.2344L96.5039 59.9414L96.6211 59.4141L96.5039 58.9453L96.2109 58.7109H95.3906L94.8633 59.0625L94.5703 58.7109L93.8672 58.2422L93.5156 57.7734L93.3398 57.2461L93.3984 56.7188L93.8086 56.4844L94.3359 56.543L94.7461 56.8945L95.2148 57.7148L95.625 57.7734L95.4492 56.9531L95.5078 56.6016L95.7422 56.25L96.0352 55.8984L96.3281 55.6641Z" fill="#F2DDDB"/>
<path d="M50.8008 20.332L51.1523 20.3906L51.6797 20.9766L53.4375 23.3203L54.375 24.5508L55.1367 25.6055L55.5469 26.25L55.6055 26.4844L55.4297 26.7188L54.9609 26.6602L54.5508 26.25L53.9648 25.4297L53.5547 25.4883L50.5078 26.1914L50.4492 26.25L50.332 27.4805L50.1562 27.9492L49.9219 28.125H49.5703L49.5117 28.0664V27.0703L49.8633 24.4336L50.2148 21.7383L50.4492 20.8008L50.6836 20.4492L50.8008 20.332Z" fill="#2F2E2F"/>
<path d="M35.2734 83.7305L35.625 83.7891L36.2109 84.375L36.8555 85.2539L37.2656 86.0742L37.3828 86.6016V87.0703L37.207 87.6562L36.9141 88.0078L36.5039 88.2422L36.1523 88.3594H35.625L34.8633 88.125L34.3359 87.832L34.043 89.5898L33.6914 90.7617L33.457 91.2305L33.1055 91.1719L32.9883 90.9375V90.4688L33.3984 88.7695L33.5742 87.4805L33.5156 87.0117L33.1641 86.6016L32.8711 86.7188L31.9922 87.4219L30.9961 88.125L30.8789 88.1836H30.4688L30.3516 88.0078V87.7148L30.8203 87.2461L31.7578 86.543L32.6953 85.7812L33.5156 85.1367L34.2773 84.4922L34.8633 83.9648L35.2734 83.7305Z" fill="#2F2E2F"/>
<path d="M79.6875 87.7148H80.2148L80.8008 88.0078L81.9727 88.7695L83.9648 90L84.9609 90.5859L85.8984 91.1133L86.25 91.4062L86.3086 91.7578L86.1328 91.9336H85.5469L84.4336 91.2891L84.082 91.4648L83.0859 92.168L81.9141 93.0469L81.7383 93.1641L81.7969 93.6914L81.9141 94.2188V94.8633L81.7969 95.0977L81.3867 95.1562L81.2109 94.7461L80.4492 91.9336L79.7461 89.0625L79.5703 88.3008V87.832L79.6875 87.7148Z" fill="#2F2E2F"/>
<path d="M25.8398 57.5391H26.1914L26.3086 57.6562V58.418L25.957 59.6484L25.3125 61.4648L24.9609 62.4023L24.8438 62.8125V63.2812L25.1367 64.1016L25.4297 64.5703L26.0742 65.0977L26.1914 65.2148L26.1328 65.4492L25.6641 65.2734L24.7852 64.6875L24.4922 64.3359L24.1992 63.6328L24.082 63.1055L23.2031 62.3438L22.6172 61.7578L22.0898 61.1133L21.5039 60.293L21.2109 59.6484L21.1523 59.4727V59.0039L21.3867 58.5352L21.7383 58.2422L22.3242 58.0078L22.8516 58.0664L23.3789 58.418L23.7891 58.8867L24.3164 59.9414L24.7266 58.8281L25.1367 58.0664L25.6055 57.6562L25.8398 57.5391Z" fill="#2F2E2F"/>
<path d="M63.2812 94.1016L63.5742 94.1602L64.043 94.7461L64.7461 95.9766L65.625 97.5586L66.4453 98.9648L67.0312 100.02L67.0898 100.137V100.547L66.9727 100.664H66.6211L66.1523 100.137L65.7422 99.4336V99.3164L63.6328 99.4922L62.4023 99.668L62.0508 101.074L61.7578 101.367H61.4062L61.2891 101.191L61.3477 100.488L61.7578 98.7891L62.7539 94.9219L63.1055 94.2188L63.2812 94.1016Z" fill="#2F2E2F"/>
<path d="M61.582 18.9258L61.875 19.043L62.4023 19.8633L63.3984 21.5625L64.3945 23.2031L65.2148 24.668L65.625 25.3711L65.7422 24.5508L65.918 22.3242L66.1523 20.2148L66.3281 19.9219L66.6211 19.8633L66.9141 20.0391L66.9727 20.3906L66.6797 23.2031L66.3867 26.25L66.2695 27.1289L66.1523 27.3633L65.918 27.3047L65.5078 26.8359L64.7461 25.4883L63.8672 24.0234L62.9883 22.5L62.168 21.0938L62.0508 20.8594L61.9336 20.8008L61.8164 22.0898L61.4062 25.0781L61.1719 26.25L60.9375 26.4844H60.4688L60.4102 26.4258V25.957L60.8203 23.1445L61.2891 19.6875L61.4062 19.1602L61.582 18.9258Z" fill="#2F2E2F"/>
<path d="M30.0586 78.5742H31.3477L31.582 78.6914L31.6406 79.1016L31.2305 79.7461L30.4102 80.7422L29.8242 81.5039L29.0039 82.5586L28.1836 83.6719L27.7148 84.375L27.4219 84.4922L27.2461 84.3164V83.6133L27.5977 83.0273L27.832 82.6172L27.4219 81.9141L26.6016 80.6836L26.1914 79.9805L25.4883 80.0391H24.668L24.4922 79.9219L24.5508 79.5117L24.7852 79.3359L25.957 79.1602L30.0586 78.5742Z" fill="#2F2E2F"/>
<path d="M32.9883 30.2344L33.3398 30.3516L35.7422 32.7539L36.2109 33.1641L37.9102 34.8633L38.1445 35.1562L38.2031 35.5664L38.1445 35.625L37.0898 35.5664L33.9844 35.0977L31.0547 34.5703H30.9375L32.2852 35.918L32.7539 36.3281L33.9844 37.5586L34.4531 37.9688L34.8633 38.4375V38.7891L34.5703 39.082L34.2773 38.9648L33.1055 37.793L32.6367 37.3828L31.6406 36.4453L30.8789 35.6836L30.4102 35.2734L29.4727 34.3359L29.2383 33.8672L29.6484 33.6914H30.3516L32.6953 34.043L36.1523 34.6289L36.6211 34.7461L36.3281 34.4531L35.4492 33.6328L34.7461 32.9883L32.9297 31.1719L32.6367 30.7031L32.6953 30.4688L32.9883 30.2344Z" fill="#2F2E2F"/>
<path d="M85.5469 29.5898H86.3672L87.1289 29.7656L87.9492 30.1758L88.5352 30.6445L89.0039 31.1719L89.4141 31.875L89.6484 32.6367L89.707 33.0469V33.6328L89.5312 34.5117L89.2969 35.1562L88.8867 35.8594L88.3594 36.4453L87.832 36.9141L86.8359 37.3828L86.0742 37.5586H85.3711L84.4336 37.3242L83.6133 36.9141L82.9102 36.2695L82.5586 35.8594L82.1484 35.1562L81.8555 34.2188V32.9883L82.0898 32.2266L82.5 31.4648L83.0273 30.8789L83.4375 30.4688L84.3164 29.9414L84.9609 29.707L85.5469 29.5898ZM86.0156 30.293L85.1367 30.4688L84.1992 30.9375L83.6133 31.4648L83.2031 31.9336L82.793 32.6367L82.5586 33.457V34.043L82.7344 34.7461L83.1445 35.5664L83.6133 36.0938L84.2578 36.5039L84.9023 36.7383H86.0156L86.7773 36.5039L87.4219 36.1523L88.0078 35.6836L88.4766 35.0391L88.8281 34.3359L89.0039 33.5742V32.9883L88.8281 32.2852L88.418 31.4648L87.8906 30.9375L87.0703 30.4688L86.3086 30.293H86.0156Z" fill="#2F2E2F"/>
<path d="M73.7109 91.2891H74.0625L74.3555 91.7578L74.9414 93.1055L75.8789 95.0977L76.7578 96.9727L76.8164 97.1484V97.6172L76.582 97.7344L75.9961 97.5L74.2383 96.4453L73.2422 95.8594L72.3047 95.332L70.6641 94.3359L70.2539 94.1016L71.6602 97.3828L72.1875 98.7891L72.2461 99.082L72.0703 99.4336L71.7188 99.4922L71.4258 99.0234L70.3711 96.5039L69.668 94.8633L69.2578 93.9258L69.082 93.3398V92.9297L69.1406 92.8711L69.5508 92.9297L70.7812 93.5156L72.1875 94.3359L73.7695 95.2148L75.5273 96.2695L75.0586 95.332L74.2383 93.6328L73.5352 91.9922L73.4766 91.582L73.7109 91.2891Z" fill="#2F2E2F"/>
<path d="M25.6641 39.5508H26.0742L26.25 39.668L26.1914 40.0195L25.1953 42.0703L25.0195 42.3633L25.1367 42.5977L26.6016 43.3594L26.9531 43.5352H27.1289L28.125 41.6602L28.4766 41.1914H28.8281L29.0039 41.3672V41.7773L28.125 43.418L27.8906 43.8281L27.9492 44.0625L29.9414 45.0586H30.1172L31.1719 43.0078L31.6406 42.1289L31.875 41.9531L32.168 42.0117L32.2852 42.2461L32.168 42.7734L31.4062 44.2383L30.7031 45.5273L30.3516 45.9961H29.9414L28.0078 45L26.8945 44.4141L25.957 43.9453L24.4922 43.1836L24.1406 42.8906L24.082 42.5977L25.5469 39.668L25.6641 39.5508Z" fill="#2F2E2F"/>
<path d="M47.168 91.9336L47.6367 91.9922L49.7461 92.6953L50.8594 93.1055L50.918 93.457L50.6836 93.75L50.2148 93.6914L48.1055 92.9297L47.7539 92.8711L47.5195 93.457L47.0508 95.0391L47.6367 95.2148L49.3359 95.8008L49.5117 95.918L49.4531 96.3281L49.2188 96.5039L48.6328 96.3867L47.0508 95.8008H46.8164L46.2305 97.6758V98.0273L47.1094 98.3203L48.75 98.7891L48.9844 98.9062L49.043 99.1992L48.8672 99.4922L48.8086 99.5508H48.3984L45.9961 98.7305L45.293 98.4375L45.2344 98.3789L45.293 97.8516L46.0547 95.4492L46.7578 93.1055L47.0508 92.1094L47.168 91.9336Z" fill="#2F2E2F"/>
<path d="M41.6016 23.6719H42.0703L42.1875 23.7891V24.1406L42.0703 24.3164L41.0742 24.5508L40.3711 24.9023L39.9023 25.3125L39.5508 25.8984L39.375 26.543V27.5391L39.6094 28.2422L40.0781 29.1211L40.7227 29.8242L41.25 30.1758L42.0117 30.4688L42.4805 30.5273H43.0664L43.7695 30.3516L44.4141 29.9414L44.8828 29.4141L45.1758 28.8281L45.4102 28.2422L45.4688 28.1836H45.8203L45.8789 28.2422V28.8867L45.5859 29.5898L45 30.3516L44.2969 30.8789L43.6523 31.1719L43.0664 31.3477L42.3047 31.4062L41.543 31.2891L40.8398 30.9961L40.1953 30.5859L39.6094 30.0586L39.082 29.2383L38.7305 28.418L38.5547 27.6562V26.6602L38.7891 25.8398L39.082 25.2539L39.7266 24.5508L40.5469 24.0234L41.3086 23.7305L41.6016 23.6719Z" fill="#2F2E2F"/>
<path d="M93.2812 39.3164H94.1602L94.6289 39.5508L95.1562 40.0195L95.5664 40.6641L95.8008 41.3086L95.8594 41.7188L95.7422 41.8359H95.2734L94.9805 41.1328L94.6289 40.5469L94.5703 40.3711L94.3359 40.2539L93.8672 40.0781L93.3398 40.1953L93.0469 40.4297L92.9297 40.7227V41.3672L93.1055 42.9492L93.0469 43.6523L92.8125 44.4141L92.4609 44.9414L92.0508 45.293L91.582 45.4688L90.9961 45.4102L90.293 45.0586L89.707 44.4727L89.3555 43.9453L89.0625 43.0664L89.0039 42.2461L89.1211 41.7773L89.6484 41.6602L89.8828 41.7773L89.9414 42.0117L89.8242 42.4219V43.125L90.0586 43.7109L90.5859 44.2969L90.9961 44.5312H91.582L91.875 44.1797L92.1094 43.6523L92.2266 42.7148L92.0508 41.25V40.6641L92.2852 40.0195L92.5781 39.668L93.2812 39.3164Z" fill="#2F2E2F"/>
<path d="M59.3555 41.4258L59.5898 41.6602L60.1172 42.4805L60.7617 43.3008L61.875 44.4141L62.6367 45L63.5156 45.5273L64.3359 45.9375L65.918 46.4648L67.793 46.9336L68.5547 47.2266L68.9648 47.5781L69.3164 48.2812L69.4336 48.9844V49.9805L69.3164 51.7383L69.082 52.5L68.4961 53.4375L67.9688 54.082L67.4414 54.668L66.8555 55.1953L65.9766 55.7812L64.8633 56.3672L63.3398 56.9531L62.1094 57.3047L60.7031 57.5391H58.7109L57.5391 57.3633L56.4258 57.0703L55.3711 56.6016L53.9648 55.6641L53.1445 55.0195L52.3242 54.3164L51.5039 53.4375L50.8594 52.6172L50.4492 52.0312V49.4531L50.625 47.8711L50.8008 46.9922L50.918 46.9336L51.6211 47.3438L52.0898 47.4609L52.7344 47.4023L53.4375 47.168L54.4336 46.6406L55.4297 45.9375L56.25 45.2344L56.6016 44.8828H56.7188V44.7656H56.8359V44.6484H56.9531L57.0703 44.4141L57.5977 43.8867L58.125 43.2422L58.8867 42.1875L59.3555 41.4258ZM59.2969 42.0117L58.9453 42.4219L58.5938 42.8906L58.125 43.5352L57.7148 43.9453L57.4805 44.2969L56.4844 45.293L55.8398 45.8203L55.3711 46.2305L54.6094 46.7578L54.082 47.1094L52.8516 47.5781L52.5 47.6367H51.9727L51.0938 47.3438H50.9766L50.8594 47.6367L50.7422 48.3398L50.625 49.7461V51.9141L51.2695 52.8516L51.6211 53.3203L51.9141 53.5547L52.3242 54.0234L52.9688 54.668L53.9062 55.3711L54.668 55.957L55.7227 56.6016L56.0742 56.7188L57.4219 57.1875L58.125 57.3047L59.9414 57.4219H60.4102L60.5273 57.3633L61.5234 57.2461L62.7539 56.9531L64.2773 56.4258L65.2734 55.957L65.7422 55.7227L66.0352 55.5469L66.7969 54.9609L67.6758 54.1406L67.9102 53.8477V53.7305H68.0273L68.5547 52.9688L68.9648 52.2656L69.1406 51.5039L69.1992 50.332V48.6914L68.9062 47.9297L68.4961 47.4609L68.0273 47.2266L67.3242 46.9922L65.9766 46.6992L65.2148 46.4648L64.1016 46.0547L63.1055 45.5273L62.6953 45.2344L62.2852 45L61.6406 44.4727L60.6445 43.4766L60.1172 42.832L59.707 42.2461L59.4727 42.0117H59.2969Z" fill="#F0DAD5"/>
<path d="M90.2344 76.875L90.5859 76.9336L90.6445 77.168L90.4102 77.5195L89.7656 78.0469L89.4141 78.6328L89.2969 78.9844V79.6875L89.4141 79.9219L89.5312 79.9805L90.1172 79.9219L91.0547 79.4531L92.168 78.75L93.0469 78.2812L93.6914 78.0469L94.1602 77.9883L94.5703 78.1055L94.8633 78.3398L95.2148 79.043V80.1562L94.9805 80.8594L94.5703 81.5039L94.043 82.0898L93.5742 82.5L93.1055 82.7344L92.8125 82.6172L92.6367 82.3828V82.0898L93.5742 81.6211L93.75 81.4453H93.8672L93.9844 81.2109L94.3359 80.6836L94.5703 79.9805V79.3945L94.3945 79.1016L94.043 78.9258H93.6328L93.1055 79.1016L92.3438 79.5117L91.1719 80.2734L90.4688 80.6836L89.707 80.918L89.2383 80.8594L88.8867 80.6836L88.6523 80.3906L88.5352 80.0977V79.043L88.8281 78.3398L89.2969 77.6953L89.9414 76.9922L90.2344 76.875Z" fill="#2F2E2F"/>
<path d="M55.3711 94.1602L56.1328 94.2188L57.0703 94.4531L57.4219 94.6289L57.4805 94.8633L57.3047 95.332L57.0117 95.2734L56.4258 95.0391L55.957 94.9219H55.1367L54.7852 95.0977L54.6094 95.332V95.8008L54.8438 96.2109L55.4297 96.6797L56.3672 97.2656L56.9531 97.7344L57.3047 98.1445L57.4805 98.6133V99.2578L57.2461 99.9023L56.8359 100.371L56.1328 100.723L55.2539 100.84L54.3164 100.664L53.6133 100.371L53.1445 99.9609L53.2031 99.5508L53.3789 99.3164L53.6719 99.4336L54.3164 99.8438L54.9609 100.078H55.8984L56.4258 99.7266L56.6016 99.375V98.7305L56.3672 98.3789L55.8984 97.9688L54.9023 97.3242L54.3164 96.9141L53.9062 96.5039L53.7305 96.1523L53.6719 95.8594V95.4492L53.8477 94.9219L54.2578 94.5117L54.7266 94.2773L55.3711 94.1602Z" fill="#2F2E2F"/>
<path d="M44.8242 78.9258H45.0586L45.1172 79.8633L45.293 80.2148L45.7031 80.5664L45.8789 80.625H46.4062L47.0508 80.3906L47.2852 80.2148H47.4023L47.6367 80.7422L48.1641 81.0938L48.457 81.2109L48.5156 81.3867V83.3789L48.75 84.3164L49.2188 85.3711L49.8047 86.25L50.4492 86.8945L51.3867 87.3633L52.207 87.5977L53.0859 87.7148H54.1992L55.1953 87.5977L56.4258 87.3047L57.1289 87.0703L57.8906 86.6602L58.3594 86.1914L58.8281 85.3711L59.1797 84.3164L59.4727 82.9688L59.5312 82.9102L60.3516 82.793H60.6445L61.2305 84.2578L61.582 85.4883L61.9922 86.3086L62.4023 86.7773L63.0469 87.1875L63.9844 87.5977L64.6875 87.7734L65.0977 87.832H66.2695L67.3828 87.5391L68.7891 87.0117L69.4336 86.6602L70.0195 86.1328L70.4883 85.4883L70.957 84.668L71.543 83.2031L71.7773 82.1484L71.9531 80.918L72.3633 80.7422L72.9492 80.4492L73.2422 80.1562L73.4766 79.8047H74.0039L73.8281 79.8633V79.9805L73.6523 80.0391L73.5938 80.1562H73.4766L73.3594 80.4492L73.0078 80.7422L72.4805 80.9766L72.1875 81.0938L71.9531 82.7344L71.6016 83.8477L71.3086 84.6094L70.6055 85.7812L70.1367 86.4258H70.0195L69.9609 86.6016L69.375 87.0117L68.5547 87.4219L66.7969 88.0078L66.3281 88.125H64.9219L63.6328 87.7734L62.8125 87.3633L62.5195 87.1875L61.9922 86.7188L61.6406 86.25L61.2891 85.4883L61.1133 84.7266L60.9375 84.2578L60.7617 83.8477L60.5273 83.2031V83.0859H59.6484V83.4961L59.2969 84.9609L58.7695 86.0742L58.3008 86.6602L57.9492 86.9531L56.8359 87.4805L55.7227 87.7734L55.2539 87.8906L54.082 88.0078H53.2031L52.207 87.8906L51.0352 87.5391L50.5078 87.2461L49.9219 86.7773L49.3359 86.0742V85.957H49.2188L48.8672 85.2539L48.6914 84.9609L48.3984 84.1406L48.2812 83.6133L48.2227 82.9102V81.4453L47.8125 81.2109V81.0938H47.6367L47.2852 80.6836L46.9336 80.7422L46.582 80.8594L45.9961 80.918L45.5273 80.7422L45.2344 80.5664L44.8828 79.9805L44.8242 79.2188H44.6484L44.7656 78.9844L44.8242 78.9258Z" fill="#F7E8E5"/>
<path d="M69.9023 78.6914H70.1367V79.1016L69.7852 79.6875L69.6094 79.8633H69.0234L68.8477 80.6836L68.4961 81.1523L68.2031 81.3867L67.9102 81.5039H67.0312L66.7969 81.3281L66.5039 81.3867L66.0938 81.7383L65.332 81.9727H64.6289L64.3945 81.7383L64.3359 81.5039L63.75 81.8555L63.3984 81.9727H62.8711L62.5195 81.7969L62.168 81.3867L62.1094 81.2109L62.6367 81.0352L64.2773 80.625L65.9766 80.332L67.3242 79.9805L68.4961 79.5117L69.5508 78.8672L69.9023 78.6914Z" fill="#F1DCD8"/>
<path d="M61.5234 18.75L61.875 18.8086L61.9922 18.8672V18.9844L62.168 19.043L62.6367 19.8047L62.8125 20.1562L63.457 21.2109L63.9844 22.0898L64.5703 23.0859L64.8047 23.4961V23.6133H64.9219L65.332 24.4336L65.3906 24.6094H65.5078L65.5664 24.3164L65.625 23.2031L65.8008 21.5625L65.918 20.4492L66.0352 19.9219L66.2109 19.7461L66.7383 19.6875L67.1484 20.0391V20.7422L66.8555 23.4961L66.6211 26.1328L66.4453 27.3633L66.2109 27.4219L66.2695 26.6602L66.5039 24.4336L66.8555 20.8008L66.9141 20.2148L66.7969 19.9805L66.4453 19.9219L66.2695 20.0391L66.1523 20.6836L65.8594 23.6133L65.7422 25.1367L65.6836 25.4297L65.4492 25.1953L64.7461 23.9062L63.75 22.2656L63.0469 21.0352L62.2852 19.7461L61.8164 19.043L61.582 18.9844L61.4062 19.3359L61.0547 21.7969L60.5273 25.6055L60.4688 25.957V26.4258H60.9375L61.1133 26.25L61.3477 25.0781L61.7578 22.0898L61.875 21.0352L61.9336 20.8008L62.1094 20.8594L62.7539 22.0312L63.5742 23.4375L64.4531 24.9023L65.332 26.4258L65.7422 27.0703L66.1523 27.4219L65.918 27.5391L65.7422 27.4805V27.3633L65.5078 27.2461L65.2148 26.7188L64.8633 26.1328L64.3945 25.3711L64.2188 25.0781V24.9609L64.1016 24.9023L63.6328 24.082L63.1055 23.2617L62.8125 22.6758L62.3438 21.9141V21.7969L62.0508 21.8555L61.9922 22.5586L61.9336 22.7344L61.8164 23.7305L61.582 25.1953L61.4648 26.0156L61.2891 26.4258L60.9961 26.6602L60.8789 26.7188H60.5273L60.2344 26.4844V25.7812L60.7031 22.4414L61.0547 19.8047L61.2891 18.9258L61.5234 18.75Z" fill="#F8E9E6"/>
<path d="M73.5938 91.1133H74.0039L74.3555 91.2891L74.6484 91.875L74.9414 92.5781L75.3516 93.3984L75.6445 94.1016L76.1133 95.0391L76.9922 96.9727V97.6758L76.9336 97.793L76.6406 97.9102L76.1133 97.793L75.5273 97.4414L75 97.1484L74.2969 96.7383L74.0625 96.6211V96.5039L73.7109 96.3867L73.418 96.2109L72.7148 95.8008L72.0117 95.4492L71.1914 94.9219L70.8984 94.8047L70.957 95.2148L71.25 95.8008L71.6602 96.8555L71.9531 97.5L72.2461 98.2031L72.4219 98.7891V99.1992L72.2461 99.4922L71.8359 99.668L71.543 99.5508L71.25 99.1992L70.8398 98.2031L70.5469 97.4414L70.1953 96.6797L69.9023 95.8594L69.4922 94.9805L69.0234 93.9258L68.9062 93.457V92.9297L69.1406 92.6953H69.6094L70.5469 93.1641L71.543 93.6914L71.8945 93.9258L72.5391 94.2773L73.0078 94.5703L73.7109 94.9219L74.3555 95.332L74.6484 95.5078L74.8828 95.5664L74.707 95.0391L74.2383 94.1016L73.8867 93.3398L73.5352 92.5195L73.3594 92.0508L73.3008 91.5234L73.3594 91.2891L73.5938 91.1133ZM73.7109 91.2891L73.4766 91.582L73.5938 92.1094L74.3555 93.8672L75.293 95.8008L75.5273 96.2695L72.4219 94.4531L70.957 93.6328L69.7266 92.9883L69.4336 92.8711H69.1406L69.082 92.9297V93.3398L69.375 94.2188L70.1367 95.918L70.8398 97.6172L71.4844 99.1406L71.7188 99.4922L72.0703 99.4336L72.2461 99.0234L71.8359 97.793L71.1914 96.3281L70.5469 94.8047L70.2539 94.1016L71.0742 94.5703L72.1289 95.2148L72.9492 95.6836L74.3555 96.5039L75.9961 97.5L76.582 97.7344L76.8164 97.6172V97.1484L76.2891 95.9766L75.1758 93.6328L74.4141 91.9336L74.1211 91.3477L74.0625 91.2891H73.7109Z" fill="#F8E9E6"/>
<path d="M75.1172 22.2656L75.5859 22.3828L79.2773 24.0234L79.4531 24.1992L79.3945 24.6094L79.2773 24.7266H78.9258L77.4023 24.0234L77.168 24.082L76.4062 25.8984L75.5273 28.0078L74.8828 29.5312L74.6484 30L74.4727 30.1172L74.1211 30.0586L74.0039 29.9414L74.0625 29.4141L74.7656 27.5977L75.5859 25.6641L76.3477 23.7891L76.2891 23.5547L75.1758 23.0273L74.9414 22.8516V22.3828L75.1172 22.2656Z" fill="#2F2E2F"/>
<path d="M40.3125 88.0078L40.6641 88.0664L41.7188 88.7109L42.4805 89.1797L43.7109 89.9414L44.1211 90.2344L44.1797 90.4688L44.0039 90.7617L43.7109 90.8203L43.125 90.5273L42.3047 90L42.0117 89.8828L41.8945 90.2344L41.0156 91.9336L40.2539 93.2812L39.7266 94.2773L39.1406 95.2734L39.0234 95.3906L38.6719 95.332L38.4961 95.1562L38.5547 94.7461L39.1406 93.5742L39.8438 92.2852L40.6641 90.7031L41.1328 89.8242L41.25 89.4141V89.2969L41.0156 89.1797L40.1953 88.5938L40.0781 88.418L40.1367 88.1836L40.3125 88.0078Z" fill="#2F2E2F"/>
<path d="M40.1953 73.8281L40.4297 73.9453L41.0742 74.5898L41.8945 75.2344L42.8906 75.7031L43.5938 75.9375L43.8281 76.4648L44.1797 77.1094L44.707 77.6953L45.293 78.2227V78.3984L44.3555 78.5742H43.5938L43.2422 78.3984L43.0664 78.2227L43.0078 77.7539L43.3008 76.6992L42.9492 76.875L42.7148 77.168L42.5977 77.2266H42.1289L41.7773 77.0508V76.2891L41.1914 76.582H40.8398L40.6641 76.4062L40.6055 76.1719L40.7812 75.7617L41.1328 75.4688L41.3672 75.293L41.1914 75.1172L40.8398 75.1758L40.6055 75.293H40.2539L39.9023 75.0586L39.7852 74.9414V74.4727L40.1367 73.8867L40.1953 73.8281Z" fill="#F2DCD9"/>
<path d="M25.5469 39.375H26.1328L26.3672 39.668V40.1953L25.3711 42.1875L25.4297 42.4805L25.957 42.832L26.7773 43.2422H27.0117L27.4805 42.4805L27.9492 41.543L28.3008 41.0742L28.6523 40.957L29.0039 41.1914L29.1797 41.3672V41.8945L28.6523 42.8906L28.2422 43.6523L28.1836 43.8281L28.3594 44.0625L28.9453 44.2969L29.7656 44.707L30.0586 44.6484L30.5273 43.8281L31.4062 42.0703L31.6406 41.8359H32.1094L32.3438 41.9531L32.4609 42.1289V42.5977L32.168 43.3008L31.6406 44.1797L31.2305 45L30.7031 45.9375L30.4102 46.1719L30.1172 46.2305L29.5898 46.0547L28.8867 45.6445L27.7148 45.1172L26.7773 44.5898L26.25 44.3555L25.1367 43.7695L24.375 43.3594L23.9062 42.8906L23.9648 42.3633L24.6094 41.0156L25.3125 39.6094L25.5469 39.375ZM25.6641 39.5508L25.3711 40.0195L24.082 42.5977L24.1406 42.8906L24.6094 43.2422L28.125 45.0586L29.4141 45.7031L29.9414 45.9961H30.3516L30.7031 45.5273L31.7578 43.5352L32.2266 42.5977L32.2852 42.2461L32.168 42.0117L31.875 41.9531L31.582 42.2461L30.9961 43.3594L30.1172 45.0586L29.8242 45L28.8867 44.5312L27.8906 44.0039L27.9492 43.7109L28.7695 42.1875L29.0039 41.7773V41.3672L28.8281 41.1914H28.4766L28.2422 41.4844L27.4219 43.0078L27.1289 43.5352L26.7773 43.4766L25.4297 42.7734L25.0195 42.4805L25.1367 42.1289L25.6641 41.1328L26.25 39.8438L26.1914 39.6094L26.0742 39.5508H25.6641Z" fill="#F7E8E6"/>
<path d="M41.6016 23.4375H42.0117L42.3047 23.6133L42.4219 24.082L42.1875 24.4336L41.7773 24.6094L41.0742 24.7852L40.4883 25.0781L40.1953 25.3125L39.8438 25.8398L39.668 26.1914L39.5508 26.7188V27.3047L39.7852 28.0664L40.1953 28.8867L40.8398 29.6484L41.1328 29.8828L41.7773 30.1758L42.3047 30.293H43.2422L43.8281 30.0586L44.4141 29.6484L44.7656 29.1797L45 28.7109L45.2344 28.1836L45.4102 28.0078H45.8203L46.0547 28.125L46.1133 28.5938L46.0547 29.1211L45.5273 30.0586L45.0586 30.5859L44.3555 31.1133L43.6523 31.4062L42.9492 31.582L42.1875 31.6406L41.3086 31.4648L40.4883 31.0547L39.8438 30.5859L39.1992 29.9414L38.7305 29.0039L38.4375 28.1836L38.3203 27.5977V26.8945L38.4375 26.1914L38.7891 25.3125L39.1406 24.8438L39.6094 24.375L40.1953 23.9648L40.7812 23.6719L41.6016 23.4375ZM41.6016 23.6719L40.8398 23.9062L40.1367 24.2578L39.5508 24.7266L39.082 25.2539L38.7305 25.957L38.5547 26.6602V27.6562L38.7891 28.5938L39.2578 29.5312L39.7266 30.1758L40.2539 30.6445L41.0742 31.1133L41.7188 31.3477L42.4219 31.4062L43.3008 31.2891L44.0625 30.9961L44.707 30.5859L45.1172 30.2344L45.6445 29.4727L45.8789 28.8867V28.2422L45.8203 28.1836H45.4688L45.293 28.4766L45.0586 29.1211L44.5898 29.7656L44.0039 30.2344L43.418 30.4688L43.0664 30.5273H42.4805L41.8359 30.4102L41.1328 30.1172L40.6641 29.7656L40.2539 29.3555L39.7852 28.5938L39.4922 27.9492L39.375 27.5391V26.543L39.6094 25.7812L40.0195 25.1953L40.5469 24.7852L41.25 24.4922L42.0703 24.3164L42.1875 24.1406V23.7891L42.0703 23.6719H41.6016Z" fill="#F7E9E6"/>
<path d="M47.168 91.7578H47.5781L49.7461 92.4609L50.7422 92.8125L51.0938 93.1055V93.5156L50.8008 93.8672L50.6836 93.9258H50.2148L49.1016 93.5156L48.1055 93.1641L47.8711 93.2227L47.6367 93.8086L47.4023 94.5703V94.9219L49.3359 95.5664L49.6289 95.8594L49.6875 96.2695L49.3359 96.6797H48.75L47.7539 96.2695L47.0508 96.0938L46.875 96.3281L46.6992 96.8555L46.4648 97.5V97.9102L48.0469 98.3789L48.75 98.5547L49.1016 98.7891L49.2188 98.9648V99.3164L49.043 99.6094L48.6914 99.7852L48.0469 99.668L45.8789 98.9062L45.293 98.6719L45.1172 98.4961L45.0586 98.3203V97.9102L45.4102 96.7969L45.6445 95.9766L46.2305 94.1602L46.6406 92.6953L46.875 91.9922L47.168 91.7578ZM47.168 91.9336L46.9336 92.4609L46.4062 94.2773L45.5859 96.9727L45.2344 98.0273V98.3789L45.7031 98.6133L47.6953 99.3164L48.3984 99.5508H48.8086L48.9844 99.375L49.043 99.0234L48.8672 98.8477L47.3438 98.3789L46.3477 98.0859L46.2305 98.0273L46.2891 97.5L46.8164 95.8008L47.2266 95.8594L48.8086 96.4453L49.2188 96.5039L49.4531 96.3281L49.5117 95.918L49.043 95.6836L47.2852 95.0977L47.0508 95.0391L47.6953 92.9297L47.8711 92.8711L49.1016 93.2812L50.3906 93.75H50.6836L50.918 93.457L50.8594 93.1055L48.3984 92.2266L47.4023 91.9336H47.168Z" fill="#F8E9E6"/>
<path d="M90.1172 76.6992H90.5273L90.8203 76.875V77.2852L90.6445 77.5781L89.8242 78.3398L89.5898 78.8086L89.4727 79.3945L89.5898 79.6875L89.8828 79.7461L90.5273 79.5117L91.4062 78.9258L91.7578 78.75L92.3438 78.3984L93.457 77.8711L93.6914 77.8125H94.3359L94.7461 77.9883L95.0391 78.2227L95.3906 78.8672L95.4492 79.9805L95.2734 80.6836L94.9219 81.3867L94.5703 81.8555L94.1602 82.3242L93.5156 82.793L93.1641 82.9688L92.8711 82.9102L92.5781 82.7344L92.4609 82.5V82.0898L92.8125 81.7969L93.3984 81.4453L93.8672 81.0352L94.2773 80.2734L94.3359 80.0391V79.4531L94.1016 79.2188L93.5742 79.1602L92.9297 79.3945L92.4023 79.7461L91.7578 80.1562H91.6406V80.2734L90.8203 80.7422L90 81.0938H89.2383L88.7109 80.8594V80.7422H88.5938L88.3008 80.0391V79.3359L88.418 78.6914L88.7695 77.9883L89.4141 77.168L89.9414 76.7578L90.1172 76.6992ZM90.2344 76.875L89.8828 77.0508L89.4727 77.4609L88.9453 78.1641L88.5938 78.8672L88.5352 79.043V80.0977L88.7695 80.5664L89.0625 80.8008L89.4727 80.918L90 80.8594L90.8203 80.5078L91.8164 79.8633L92.7539 79.2773L93.3398 78.9844L93.6328 78.9258H94.043L94.3945 79.1016L94.5703 79.3945V79.9805L94.3359 80.6836L93.9844 81.2109L93.8672 81.4453L93.6328 81.5625L93.1641 81.8555L92.6367 82.0898L92.6953 82.5L92.9883 82.7344L93.3398 82.6172L93.8672 82.2656L94.4531 81.6797L94.9805 80.8594L95.2148 80.1562V79.043L94.8633 78.3398L94.4531 78.0469L93.9258 77.9883L93.3398 78.1641L92.4023 78.6328L91.582 79.1016L90.6445 79.6875L90.1172 79.9219L89.5312 79.9805L89.3555 79.8047L89.2969 79.6875V78.9844L89.5312 78.3984L89.8242 77.9883L90.4688 77.4609L90.6445 77.168L90.5859 76.9336L90.2344 76.875Z" fill="#F7E8E5"/>
<path d="M50.9766 21.3867L51.3281 21.6797L51.7969 22.3828L52.5 23.3203L53.3203 24.4336L53.5547 24.8438L53.2617 24.9609L50.918 25.4883L50.4492 25.5469L50.625 24.2578L50.8594 22.3242L50.918 21.5039L50.9766 21.3867Z" fill="#F3DEDC"/>
<path d="M93.5742 39.082H93.9844L94.5117 39.2578L95.0391 39.6094L95.4492 40.0195L95.918 40.957L95.9766 41.1328V41.7188L95.8594 41.8359L95.625 40.8984L95.2734 40.2539L94.8047 39.7266L94.2773 39.4336L94.1602 39.375H93.2812L92.5781 39.7266L92.3438 40.0195L92.1094 40.6641V41.25L92.2852 42.7148L92.168 43.6523L91.8164 44.3555L91.582 44.5898H90.9961L90.5273 44.2969L90.1172 43.8867L89.8242 43.3008L89.7656 43.125V42.4219L89.8828 41.8945V41.7773L89.5312 41.7188L89.1211 41.7773L89.0625 42.6562L89.2383 43.4766L89.4727 44.0039L89.8242 44.5312L90.293 45L90.9961 45.3516L91.582 45.4102L92.168 45.1758L92.6367 44.6484L92.9297 43.9453L93.0469 43.2422L92.9883 42.3633L92.8711 41.3672V40.7227L93.0469 40.3711L93.3398 40.1367L93.8672 40.0195L94.3359 40.1953L94.6289 40.4883L94.9805 41.0156L95.2734 41.7773L95.6836 41.8945V42.0117H95.2148L95.0391 41.8945L94.7461 41.1328L94.4531 40.7227V40.6055H94.3359V40.4883L94.043 40.3711H93.5742L93.2812 40.5469L93.1641 40.8398V41.4258L93.2227 42.1875L93.2812 42.4219V43.5352L93.1641 44.1797L92.8125 44.8828L92.3438 45.3516L91.7578 45.6445L91.3477 45.7031L90.7617 45.5273L90.5273 45.4688V45.3516L90.1758 45.2344L89.7656 44.8828V44.7656H89.6484L89.2383 44.1211L88.9453 43.418L88.8281 42.9492V41.9531L89.0625 41.6016L89.2969 41.4844H89.6484L90 41.7188L90.1172 42.0703L90.0586 42.3633V43.125L90.4102 43.7695L90.4688 43.9453H90.5859L90.8789 44.2383L91.1719 44.3555L91.582 44.2969L91.6992 44.0625L91.9336 43.418L91.9922 43.0078L91.9336 41.7188L91.875 41.4844V40.5469L92.0508 40.0195L92.4609 39.4922L92.9883 39.1992L93.5742 39.082Z" fill="#F8E9E6"/>
<path d="M55.1367 93.9844H56.0742L56.8945 94.1602L57.3633 94.3359V94.4531L57.5977 94.5703L57.6562 94.6875V95.0391L57.4805 95.3906L57.2461 95.5078L56.8945 95.4492L55.8398 95.0977H55.2539L54.8438 95.2148V95.7422L55.0781 96.0938L55.4883 96.4453L56.0742 96.7969L56.6602 97.207L57.1289 97.5586L57.4805 98.0273L57.6562 98.4375L57.7148 99.1992L57.5391 99.7852L57.3633 100.137L56.9531 100.547L56.3086 100.898L55.8398 101.016H54.8438L53.7305 100.664L53.2617 100.371L53.0273 100.137L52.9688 99.9609V99.5508L53.0859 99.3164L53.4375 99.1406L53.8477 99.3164L54.375 99.6094L54.9609 99.8438L55.4297 99.9023L55.957 99.7852L56.3086 99.4922L56.4258 99.1406L56.3672 98.7305L56.0742 98.3789L55.957 98.3203V98.2031L55.7227 98.0859L54.3164 97.207L53.6719 96.5625L53.5547 96.3281L53.4961 95.9766V95.3906L53.6133 94.9219L53.7305 94.6875L54.1992 94.2773L54.5508 94.1016L55.1367 93.9844ZM55.3711 94.1602L54.6094 94.3359L54.1992 94.5703L53.7891 95.0391L53.6719 95.4492V95.8594L53.8477 96.3867L54.2578 96.8555L54.7852 97.2656L55.7227 97.8516L56.25 98.2617L56.543 98.6133L56.6016 98.7305V99.375L56.3086 99.8438L55.8984 100.078H54.9609L54.1992 99.7852L53.4961 99.3164L53.2617 99.4336L53.1445 99.668V99.9609L53.6133 100.371L54.3164 100.664L55.2539 100.84L56.1328 100.723L56.8359 100.371L57.2461 99.9023L57.4805 99.2578V98.6133L57.3047 98.1445L56.7773 97.5586L55.7227 96.8555L54.9609 96.3281L54.668 95.9766L54.6094 95.8008V95.332L54.8438 95.0391L55.1367 94.9219H55.957L56.8945 95.2148L57.1289 95.332L57.3633 95.2734L57.4805 94.6875L57.2461 94.5117L56.4844 94.2773L55.6641 94.1602H55.3711Z" fill="#F8E9E6"/>
<path d="M77.1094 56.9531L77.9297 57.0117L78.457 57.2461L78.8672 57.5977L79.1602 58.1836L79.2188 58.5352V59.5898L78.9844 60.5273L78.5156 61.5234L78.1055 62.0508L77.3438 62.8125L76.2305 63.6328L75.293 64.2188L74.4141 64.6875L73.3008 65.0977L72.1289 65.332H70.7812L70.1367 65.2734L69.7266 64.6875L68.8477 62.9883L68.3789 61.8164L67.207 58.3008L66.9727 57.832V57.7148L67.5586 57.8906L68.7891 58.1836L69.7266 58.3594L70.8398 58.4766H71.8359L72.8906 58.3594L73.8281 58.0664L74.7656 57.6562L75.9375 57.1875L76.6406 57.0117L77.1094 56.9531ZM77.1094 57.1289L76.2305 57.3047L75.0586 57.7148L74.5898 57.9492L73.4766 58.418L72.832 58.5938L72.1289 58.6523H70.6055L68.6719 58.3594L67.4414 58.0664H67.2656L67.5586 58.7109L67.793 59.4727L68.3789 61.3477L68.6719 62.168L68.9062 62.6367L69.0234 62.9297L69.6094 64.1602L69.8438 64.5117L70.0781 64.9805L70.2539 65.0977L71.4258 65.1562L72.4219 65.0977L73.2422 64.9219L73.7695 64.7461L74.707 64.3359L75.4102 63.9844L75.9961 63.5742L76.9922 62.8711L77.6367 62.3438V62.2266L77.8125 62.168L77.9883 61.9336V61.8164H78.1055L78.5156 61.1719L78.9844 60L79.043 59.5312V58.5938L78.9258 58.0664L78.5742 57.5391L77.9883 57.2461L77.5195 57.1289H77.1094Z" fill="#F0DAD5"/>
<path d="M80.2734 88.6523L80.5664 88.7109L81.7969 89.5312L83.1445 90.4102L83.7891 90.8203V90.9961L83.0273 91.5234L82.207 92.1094L81.5039 92.6367L81.3867 92.5781L80.4492 89.2969L80.2734 88.6523Z" fill="#F3DEDC"/>
<path d="M69.4922 80.4492L69.7852 80.5078L70.4883 80.8008L71.4844 80.9766V81.5625L71.1914 83.0273L70.8398 83.9648L70.5469 84.5508L70.0781 85.1953L69.5508 85.7812L68.7305 86.3672L67.9102 86.7773L66.9727 87.1289L66.0938 87.2461H65.332L64.1602 87.0117L63.2227 86.6602L62.5781 86.1914L62.2266 85.7812L61.875 85.0781L61.6992 84.2578L61.4062 82.3828L61.6992 82.0898L61.9336 81.9141L62.4609 82.2656L63.0469 82.3828L63.8672 82.1484H64.043L64.3359 82.4414L64.5117 82.5H65.332L66.0352 82.3242L66.5039 82.0312L66.7383 81.9141L67.1484 82.0312H67.7344L68.3789 81.8555L68.9062 81.5039L69.2578 81.0352L69.4922 80.4492ZM69.668 80.8594L69.4922 81.0352L69.2578 81.4453L68.7891 81.8555L68.1445 82.1484L67.9688 82.207H66.6797L65.9766 82.5586L65.4492 82.6758H64.3945L63.9844 82.4414H63.5742L63.2227 82.5586H62.6367L62.1094 82.3828L61.7578 82.4414L61.6992 82.5L61.7578 83.2617L61.9922 84.668L62.2266 85.3711L62.5781 85.8984L63.0469 86.3086L63.5156 86.6016L64.7461 86.9531L65.2148 87.0117H66.1523L66.8555 86.9531L68.3203 86.3672L68.9648 85.957L69.6094 85.4297L70.1953 84.7266L70.6055 84.0234L70.957 83.0859L71.25 81.6211L71.1328 81.2109L70.4297 81.0352L69.9609 80.8594H69.668Z" fill="#F0D9D4"/>
<path d="M53.3789 57.5977H53.5547L53.4961 57.8906L53.0273 59.1211L52.5586 60.0586L52.0898 60.9375L51.2109 62.3438L50.5664 63.2812L49.9219 64.1016L49.6289 64.3359L48.3984 64.6289L46.875 64.8047H46.2305L45.1172 64.6875L44.0039 64.3945L43.125 64.043L42.1875 63.5742L41.543 63.1055L41.1328 62.6367L40.8398 62.0508L40.7227 61.4062L40.7812 60.4102L40.957 59.8242L41.3086 59.3555L41.8945 59.0039L42.4805 58.7695L43.5352 58.5352L44.5312 58.418L47.3438 58.3008L49.2773 58.125L52.6172 57.7148L53.3789 57.5977ZM52.9688 57.832L52.3242 57.9492L50.8008 58.125L49.1602 58.3594L47.3438 58.4766L44.707 58.5938L42.9492 58.8281L41.8945 59.1797L41.3086 59.5898L41.0742 60L40.957 60.3516L40.8984 60.7617V61.5234L41.0156 61.9922L41.25 62.4609L41.4844 62.7539L41.7773 63.1055L42.1289 63.3398H42.3047V63.457L43.418 63.9844L44.2383 64.2773L45.5859 64.5703H47.5781L48.9258 64.3359L49.6289 64.1016L49.9219 63.8086L50.2148 63.457L50.9766 62.4023L51.3281 61.875L51.6211 61.3477L52.0898 60.5859L52.6172 59.6484L53.2031 58.2422V57.8906L52.9688 57.832Z" fill="#F0D9D4"/>
<path d="M35.1562 83.5547H35.5664L36.0352 83.9062L36.6797 84.6094L37.1484 85.3125L37.5 86.0742L37.6172 86.7188V87.1875L37.3828 87.7148L37.1484 88.0664L36.9727 88.125V88.2422L36.1523 88.5938H35.6836L34.9805 88.418L34.6875 88.3008H34.5117L34.3945 88.8867L34.2773 89.6484L33.9844 90.7031L33.75 91.1719L33.5156 91.4062H33.0469V91.2891H32.9297L32.8125 91.1133V90.293L33.1055 88.9453L33.2227 88.4766L33.3398 87.8906V87.1875L33.2812 86.9531H32.7539V87.0703L31.9336 87.7148L31.2891 88.1836L30.8203 88.418L30.4688 88.3594L30.2344 88.125L30.1758 87.7148L30.3516 87.3633L31.1133 86.7188L31.6992 86.3086L32.2266 85.8984H32.3438V85.7812L32.5781 85.7227L32.6367 85.5469H32.7539V85.4297L33.3984 84.9609L33.9844 84.4336L34.2188 84.2578H34.3359V84.1406H34.4531V84.0234L35.0391 83.6133L35.1562 83.5547ZM35.2734 83.7305L34.7461 84.082L34.043 84.7266L33.457 85.1953L32.5195 85.957L31.7578 86.543L30.7031 87.3633L30.3516 87.7148L30.4102 88.125L30.4688 88.1836H30.8789L31.5234 87.7734L32.3438 87.1289L33.0469 86.6016L33.2812 86.7188L33.5156 87.0117L33.5742 87.4805L33.3984 88.7695L32.9883 90.4688V90.9375L33.1055 91.1719L33.457 91.2305L33.6914 90.7617L34.043 89.5898L34.2188 88.6523L34.3359 87.832L35.1562 88.2422L35.625 88.3594H36.1523L36.7383 88.125L37.0898 87.832L37.3242 87.3633L37.3828 87.0703V86.6016L37.207 85.8984L36.7383 85.0781L36.0938 84.2578L35.625 83.7891L35.2734 83.7305Z" fill="#F8E9E6"/>
<path d="M30.1758 79.1602H30.7617L30.6445 79.3945L30.0586 80.0977L29.4141 80.918L28.6523 81.8555L28.3594 82.2656L28.125 82.0312L27.5391 81.0938L26.9531 80.2148L26.7773 79.8633L27.7148 79.6289L29.1211 79.3359L30.1758 79.1602Z" fill="#F3DEDC"/>
<path d="M35.3906 84.6094L35.625 84.7266L36.0352 85.1367L36.5039 85.8984L36.6211 86.1914V86.8945L36.3281 87.3633L35.9766 87.5977H35.2734L34.6875 87.2461L33.6914 86.25V86.0156L34.5117 85.3125L34.9805 84.9023L35.3906 84.6094Z" fill="#F3DEDC"/>
<path d="M63.3398 95.2148L63.5742 95.332L64.5703 97.207L65.2734 98.4961L65.332 98.7305L64.9219 98.8477L63.5742 98.9648L62.5195 99.082L62.5781 98.5547L63.1055 96.3867L63.3398 95.2148Z" fill="#F3DEDC"/>
<path d="M49.5117 81.1523L49.7461 81.2695L50.0391 81.5039L50.1562 81.5625H50.8594L51.3281 81.3281L51.4453 81.7383L51.7383 82.3242L52.207 82.6172L52.3828 82.6758H53.2031L53.8477 82.3828L54.6094 82.6758L54.8438 82.7344H55.5469L56.0742 82.5586L56.3672 83.0273L57.0117 83.2617H57.7148L58.1836 83.1445L59.0039 82.7344L58.9453 83.0273L58.3008 84.9609L57.9492 85.6055L57.7148 85.8984L57.1289 86.3086L56.4258 86.6016L54.8438 87.0117L54.1406 87.1289H53.5547L52.3828 86.8945L51.4453 86.543L50.918 86.1914L50.332 85.6641L49.8047 85.0195L49.3359 84.1992L49.043 83.2617L48.9258 82.207V81.2695L49.5117 81.1523ZM49.2773 81.5039L49.1602 81.7969V82.4414L49.2773 83.3789L49.5703 84.1406L49.9805 84.9023L50.1562 85.1953H50.2734L50.3906 85.4297L50.6836 85.7227L51.3281 86.25L51.9141 86.543L52.3828 86.7188L53.4375 86.8945H54.2578L55.7227 86.6016L56.7773 86.25L57.3633 85.8984L57.6562 85.6055L57.8906 85.3125L58.2422 84.5508L58.5938 83.4961V83.3789L58.418 83.3203L57.7148 83.4961H57.0703L56.4844 83.3203L56.1914 83.0859H56.0742L55.957 82.8516L55.5469 82.9102H54.7266L54.0234 82.6758L53.5547 82.7344L52.8516 82.9102L52.3242 82.8516L51.8555 82.6758L51.5625 82.4414L51.3867 82.1484L51.2109 81.7383L51.0352 81.6797L50.918 81.7383H50.0391L49.6289 81.5039H49.2773Z" fill="#F0D9D4"/>
<path d="M85.8984 29.3555L86.543 29.4141L87.3047 29.5898L88.0664 30L88.6523 30.4688L88.9453 30.7617L89.0039 30.9375H89.1211L89.5312 31.582L89.7656 32.168L89.8828 32.7539V33.8672L89.7656 34.5703L89.4727 35.2734L89.1797 35.8008L88.7109 36.4453H88.5938V36.5625L88.0078 37.0312L87.4805 37.3242L86.8945 37.6172L85.8984 37.793L84.9609 37.7344L84.1406 37.4414L83.4961 37.0898L83.0859 36.7969L82.8516 36.5625V36.4453L82.6172 36.3281L82.1484 35.6836L81.9141 35.2148L81.6797 34.4531L81.6211 34.1016V33.1055L81.8555 32.168L82.3242 31.3477L82.793 30.7617L82.9688 30.7031V30.5859L83.6719 30.0586L84.1992 29.7656L84.9609 29.4727L85.8984 29.3555ZM85.5469 29.5898L84.6094 29.8242L83.7891 30.2344L83.2617 30.6445L82.6172 31.2891L82.1484 32.1094L81.9141 32.7539L81.8555 32.9883V34.2188L82.1484 35.1562L82.5586 35.8594L83.0859 36.4453L83.6133 36.9141L84.5508 37.3828L85.3711 37.5586H86.0742L87.0117 37.3242L87.8906 36.8555L88.4766 36.3281L88.8867 35.8594L89.3555 35.0391L89.5898 34.2773L89.707 33.6328V33.0469L89.5312 32.168L89.1211 31.3477L88.6523 30.7617L88.125 30.293L87.4219 29.8828L86.6602 29.6484L86.3672 29.5898H85.5469Z" fill="#F7E8E6"/>
<path d="M85.3711 83.2617L85.6641 83.3203L86.4844 84.1406L86.9531 84.5508L87.4219 85.0195L87.8906 85.4297L88.418 85.957L88.8867 86.3672L89.5898 87.0117L90.1758 87.5391L90.2344 87.9492L90 88.1836L89.707 88.125L89.1211 87.6562L88.4766 87.1289L87.8906 86.6016L87.4219 86.1914L85.4883 84.375L85.0781 83.9648L85.0195 83.5547L85.3711 83.2617Z" fill="#2F2E2F"/>
<path d="M25.5469 57.4219H26.3086V57.5391L26.4844 57.5977L26.543 58.1836L26.3672 59.1211L25.6641 61.1719L25.2539 62.2266L25.0781 62.8125V63.2227L25.2539 63.8086L25.6055 64.3945L26.1328 64.8047V64.9219H26.25L26.3672 65.1562L26.3086 65.4492L26.25 65.5664L25.6641 65.5078L25.4297 65.332L25.1953 65.2734V65.1562L24.9023 65.0391L24.4922 64.6875L24.375 64.3945H24.2578L24.0234 63.8086L23.9648 63.3984L23.4375 62.8125L22.8516 62.2852L22.7344 62.2266V62.1094H22.6172V61.9922H22.5L22.1484 61.5234L21.6797 60.9375L21.2695 60.3516L20.9766 59.5898V58.8867L21.0938 58.4766H21.2109L21.3281 58.2422L22.0312 57.8906L22.7344 57.832L23.2617 58.0664L23.5547 58.2422L24.0234 58.8867L24.1406 59.1211L24.2578 59.1797V59.3555H24.375L24.4336 58.9453L24.9609 57.9492L25.3711 57.5391L25.5469 57.4219ZM25.8398 57.5391L25.3125 57.8906L24.9609 58.3594L24.5508 59.2383L24.3164 59.9414L23.8477 59.0039L23.4375 58.4766L22.9688 58.125L22.6172 58.0078L22.1484 58.0664L21.5625 58.3594L21.2695 58.7109L21.1523 59.0039V59.4727L21.4453 60.1758L21.9141 60.8789L22.3828 61.4648L23.0859 62.2266L23.7891 62.8711L24.082 63.1055L24.3164 63.9844L24.6094 64.5117L25.0195 64.8633L25.8984 65.3906L26.1328 65.4492L26.1914 65.2148L25.6641 64.7461L25.3125 64.4531L24.9023 63.5156L24.8438 63.2812V62.8125L25.2539 61.582L25.8984 59.8242L26.25 58.7109L26.3086 58.418V57.6562L26.1914 57.5391H25.8398Z" fill="#F8E9E6"/>
<path d="M50.625 20.1562H51.1523L51.3281 20.2734V20.3906H51.4453V20.5078H51.5625L52.0312 21.0938L52.6172 21.8555V21.9727H52.7344V22.1484H52.8516L53.4375 22.9688L53.9062 23.5547L54.3164 24.1406L55.5469 25.7812L55.7227 26.1328V26.4844L55.5469 26.4258L55.2539 25.8398L54.4336 24.7266L53.4961 23.4961L52.6758 22.3828L51.5039 20.8594L51.1523 20.4492L50.8008 20.3906L50.5664 20.6836L50.3906 21.1523L50.2148 22.2656L49.6289 26.6016L49.5703 27.0703V28.0664H49.9219L50.1562 27.8906L50.2734 27.4805L50.3906 26.25L50.5078 26.1328L53.2617 25.4883L53.7305 25.3711L54.0234 25.4297L54.7266 26.3672L54.9609 26.6016L55.5469 26.7188L55.3125 26.9531L55.0195 26.8945L54.6094 26.6602L54.1406 26.0742L53.9062 25.7227H53.4961L52.6172 25.8984L50.9766 26.3086L50.6836 26.3672L50.5078 27.7148L50.332 28.0664L50.0391 28.3008L49.6289 28.3594L49.3359 28.1836L49.2773 28.0664V27.4219L49.4531 25.7812L49.6875 24.1992L50.0391 21.5039L50.2734 20.625L50.5078 20.2734H50.625V20.1562Z" fill="#F8E9E6"/>
<path d="M79.7461 87.4805H80.2734L80.8594 87.7734L81.7969 88.418H81.9141L82.1484 88.6523L82.5586 88.8867V89.0039L82.8516 89.0625L83.9062 89.707L84.375 90L85.3125 90.5273L86.1914 91.0547L86.4844 91.4648V91.8164L86.25 92.1094L85.7812 92.168L85.3125 92.0508L84.6094 91.6406L84.375 91.582L84.082 91.6406L84.0234 91.8164L83.0859 92.4609L82.793 92.6953L81.9727 93.2227L82.0312 93.75L82.1484 94.2773V94.7461L81.9141 95.2734L81.7383 95.3906L81.3281 95.332L81.0938 95.0391L80.5078 92.9297L80.2734 91.9922L80.0391 91.2305L79.6875 89.6484L79.3359 88.1836L79.3945 87.7148L79.5703 87.5391L79.7461 87.4805ZM79.6875 87.7148L79.5703 87.832V88.3008L80.2734 91.2305L81.0938 94.2773L81.3281 95.0977L81.3867 95.1562L81.7969 95.0977L81.9141 94.8633V94.2188L81.7383 93.5156V93.1641L82.8516 92.3438L83.9062 91.582L84.375 91.2891L84.9609 91.582L85.5469 91.9336H86.1328L86.3086 91.7578L86.25 91.4062L85.7812 91.0547L84.8438 90.5273L83.5547 89.7656L81.3281 88.3594L80.3906 87.7734L80.2148 87.7148H79.6875Z" fill="#F7E8E5"/>
<path d="M75.1758 22.0898L75.5859 22.1484L76.4062 22.5L77.2852 22.9102L78.6328 23.4961L79.3359 23.8477L79.5703 24.1406L79.5117 24.4336L79.3945 24.1992L78.9258 23.9062L77.168 23.1445L75.4688 22.3828L75.1172 22.3242L75 22.3828V22.8516L75.9375 23.3203L76.4062 23.6133L76.3477 23.9648L74.5898 28.1836L74.0625 29.5898V29.9414L74.2383 30.0586L74.5898 30L74.9414 29.2969L75.8789 27.0117L76.6406 25.1953L77.1094 24.082L77.2266 23.9648L77.5195 24.0234L79.043 24.7266H79.3359L79.4531 24.668L79.3945 24.8438L79.1602 24.9609L78.8672 24.9023L77.8711 24.4922L77.4609 24.2578L77.2852 24.3164L76.9922 25.0781L76.6992 25.7227L76.0547 27.3047L75.7617 28.0078L75.3516 29.0039L75.1172 29.5898L74.8242 30.0586L74.5312 30.293L74.0625 30.2344L73.8281 30V29.4141L74.2969 28.1836L74.7656 27.0703L75.6445 24.9609L75.9375 24.1406L76.0547 23.7891V23.6133L75.5273 23.4375L74.8828 23.0859L74.707 22.6758L74.8242 22.2656L75.1758 22.0898Z" fill="#F8E9E6"/>
<path d="M40.2539 87.832H40.6641L41.25 88.125L41.6016 88.418L42.1289 88.7109L43.5352 89.5898L43.8281 89.7656L44.0625 89.8828V90H44.1797L44.2969 90.1758V90.6445L44.0039 90.9375L43.6523 90.9961L43.1836 90.8203L42.4219 90.3516L42.1289 90.293L41.4844 91.4648L40.8984 92.5781L40.1953 93.8672L39.9023 94.3945L39.4922 95.1562L39.2578 95.4492L38.9648 95.5664L38.5547 95.5078L38.3203 95.2734V94.7461L38.5547 94.2188L38.7305 93.8672L38.8477 93.8086L38.9062 93.5156L39.1992 92.9883L39.375 92.6953L39.8438 91.8164L40.1953 91.1133L40.7812 90L40.957 89.707V89.4141L40.3125 88.9453L39.9609 88.5938V88.0664L40.2539 87.832ZM40.3125 88.0078L40.0781 88.2422L40.1367 88.5352L40.6641 88.9453L41.1328 89.2969H41.25L41.1914 89.6484L40.0195 91.9922L39.3164 93.2812L38.4961 94.8633V95.1562L38.7891 95.3906L39.082 95.332L39.4336 94.8047L40.2539 93.2812L41.0156 91.9336L42.0117 90V89.8828L42.7148 90.2344L43.5352 90.7617L43.8867 90.8203L44.1211 90.5859L44.1797 90.3516L43.8867 90.0586L42.4805 89.1797L41.4258 88.5352L40.6641 88.0664L40.3125 88.0078Z" fill="#F8E9E7"/>
<path d="M63.457 93.9844L63.75 94.043L64.1602 94.5703L64.6289 95.332L65.0391 95.9766L65.2734 96.5039L65.625 97.0312L66.0938 97.9688L66.7969 99.082L67.207 99.9023L67.2656 100.078V100.605L66.9727 100.84L66.4453 100.781L66.0938 100.488L65.8008 99.9609L65.5664 99.6094L65.332 99.5508H64.8047L64.5703 99.6094L63.6914 99.668L63.5156 99.7266L62.5781 99.8438L62.4609 100.43L62.2266 101.191L62.0508 101.367H61.9336V101.484L61.6992 101.543L61.2891 101.484L61.1133 101.191L61.1719 100.312L61.5234 98.8477L61.9922 97.0898L62.5195 94.9219L62.8711 94.2188L63.1641 94.043L63.1055 94.3359L62.8125 94.9219L61.6992 99.2578L61.4062 100.488L61.3477 101.191L61.4062 101.309H61.7578L61.9922 101.074L62.3438 99.668L62.6953 99.5508L64.8047 99.3164H65.7422L66.2109 100.137L66.6211 100.605H66.9727L67.0312 100.547V100.137L66.5625 99.2578L65.7422 97.8516L64.1016 94.9219L63.5742 94.2188L63.457 94.1602V93.9844Z" fill="#F8E9E6"/>
<path d="M30.4102 78.3398H31.2891L31.6992 78.5742L31.8164 78.8086L31.7578 79.3945L31.1719 80.1562L30.4102 81.0938L30 81.6211L29.3555 82.5L28.8281 83.1445L28.2422 83.9648L28.0078 84.3164L27.7734 84.5508L27.4805 84.6094L27.5391 84.4336L27.832 84.1406L28.3008 83.4375L29.2383 82.207L29.8242 81.4453L30.4688 80.625L31.2305 79.6875L31.582 79.1016V78.6914L31.3477 78.6328H30.0586L25.5469 79.2773L24.7852 79.3945L24.5508 79.6289V79.9219L24.668 79.9805H25.4883L26.1914 79.9219L27.0703 81.3281L27.6562 82.207L27.8906 82.6172L27.6562 83.0273L27.3047 83.6133V84.3164L27.4219 84.6094L27.1875 84.5508L27.0703 84.4922L27.0117 84.2578L27.0703 83.4961L27.3633 83.0273L27.4805 82.8516L27.5391 82.5L27.1289 81.9141L26.7773 81.3281L26.4844 80.918V80.7422H26.3672V80.5664H26.25L26.0156 80.2148H25.6055L25.3125 80.2734H24.7266L24.375 80.0391L24.2578 79.8047L24.4336 79.3359L24.7852 79.1016L25.6055 78.9844L27.0117 78.8086L28.8281 78.5156L29.6484 78.3984L30.4102 78.3398Z" fill="#F7E8E6"/>
<path d="M29.1211 33.9258H29.2969L29.6484 34.4531L30.7617 35.5664L31.2305 35.9766L32.168 36.9141L32.6367 37.3242L33.6328 38.2617L34.3359 38.9648L34.5703 39.0234L34.8047 38.7891V38.4375L34.2773 37.8516L33.5156 37.1484L32.4023 36.0352L31.9336 35.625L31.2305 34.9219L30.9375 34.6875L30.8789 34.5117L31.6992 34.6289L34.6875 35.1562L37.0898 35.5078L38.2031 35.625L38.1445 35.8008L37.6172 35.8594L36.0938 35.625L34.4531 35.3906L33.75 35.2734L33.6328 35.2148L32.6953 35.0977L31.8164 34.9219L31.875 35.1562L32.168 35.4492L32.9297 36.1523L33.1641 36.3867V36.5039H33.3398L33.75 36.9727L34.1016 37.3242V37.4414L34.3945 37.5586L34.4531 37.7344H34.5703L35.0391 38.3203V38.8477L34.8633 39.1406L34.6875 39.2578L34.2773 39.1992L33.8086 38.7891L33.3984 38.3789L32.9297 37.9688L32.8711 37.793L32.5781 37.6758L31.6406 36.7383L31.1719 36.3281L30.293 35.4492L30 35.2148V35.0977L29.7656 34.9805L29.2383 34.3359L29.1211 34.1016V33.9258Z" fill="#F8E9E7"/>
<path d="M96.7383 55.0195L97.3242 55.1953L97.6172 55.6055L97.8516 56.4258V57.1875L98.3789 57.1289L98.5547 57.0703L99.0234 57.3047L99.4336 57.7148L99.6094 58.0664L99.668 58.3594V58.8281L99.4336 59.4141L98.9648 59.8828L98.7891 59.8242L99.3164 59.1211L99.4336 58.6523L99.375 58.125L99.082 57.6562L98.7891 57.4219L98.2617 57.3633L97.793 57.5391L97.5586 57.832H97.4414L97.5 57.4219L97.6172 56.8359L97.5586 56.1328L97.3242 55.6055L97.0898 55.3711L96.7383 55.2539L96.2695 55.3125L95.8008 55.6055L95.3906 56.0742L95.1562 56.6016L94.6875 56.25L94.2773 56.1328H93.8086L93.1055 56.3672L92.8125 56.6602L92.7539 56.7773V57.5391L92.9297 58.0078L93.0469 58.3008L92.2852 58.5352L91.875 58.8867L91.6992 59.3555L91.7578 59.9414L92.1094 60.5273L92.5195 60.8203L93.2812 60.9375V61.875L93.6328 62.3438L94.2188 62.7539L93.9844 63.1641L93.9258 63.457V64.8047L94.1016 65.5078L94.3945 66.2695L94.6289 66.6211L94.8633 66.7969H94.5117L94.2188 66.4453L93.9844 65.9766L93.75 65.2148L93.6328 64.6289V63.5742L93.8086 62.9297L93.8672 62.8125L93.3984 62.4609L93.0469 61.875L92.9883 61.1133L92.4609 61.0547V60.9375L92.168 60.8203L91.9336 60.6445V60.5273H91.8164L91.582 60.1172L91.4648 59.7656V59.2969L91.6406 58.8281L92.1094 58.3594L92.6953 58.125L92.4609 57.3633L92.5195 56.8359L92.6953 56.4258L92.8711 56.3672V56.25L93.2812 56.0156L93.75 55.8984H94.3945L95.0391 56.1914H95.1562L95.2148 55.957L95.6836 55.3125L96.1523 55.0781L96.7383 55.0195Z" fill="#F7E8E5"/>
<path d="M59.7656 40.6641L60 40.7812L60.5273 41.4258L61.0547 42.0117L61.4648 42.4805L62.2266 43.1836L63.2227 43.8867L64.1016 44.4141L65.5664 45.1758L67.0312 45.8203L67.7344 46.1133L67.793 46.2305L67.3242 46.1719L65.5078 45.6445L64.1016 45.1172L62.9883 44.5312L62.168 43.9453L61.582 43.418L61.1133 43.0078L60.4688 42.1875L59.8242 41.1914L59.7656 40.6641Z" fill="#F1DBD6"/>
<path d="M32.9297 30.0586L33.3398 30.1172L34.2188 30.9375L34.8047 31.5234L34.9219 31.582V31.6992L35.1562 31.8164L35.5664 32.2852L36.0352 32.6953L36.4453 33.1055L36.5625 33.1641V33.2812H36.6797V33.457L37.0312 33.6328V33.75H37.1484V33.8672L37.3242 33.9258V34.043L37.5 34.1016V34.2188L37.7344 34.3359L38.2617 34.9219L38.3789 35.332L38.2617 35.4492L37.9102 34.9219L35.8594 32.8711L35.3906 32.4609L33.3398 30.4102L32.9883 30.293L32.6953 30.5273L32.7539 30.8203L33.1641 31.3477L35.2148 33.3984L35.6836 33.8086L36.3867 34.4531L36.6211 34.6289V34.7461L36.1523 34.6875L31.2305 33.8672L30.3516 33.75H29.6484L29.2383 33.8086L29.1797 33.6914L29.4727 33.5156H30.7031L32.2852 33.75L34.6289 34.1602L35.7422 34.3359V34.1016L35.5078 33.9844L34.8633 33.3984L34.6875 33.2812V33.1641L34.4531 33.0469L33.6328 32.2266V32.1094L33.3984 31.9922V31.875H33.2812V31.7578H33.1641L32.7539 31.2891L32.5195 30.9961L32.4609 30.5273L32.5195 30.3516L32.9297 30.0586Z" fill="#F8E9E7"/>
<path d="M74.0625 78.2227H74.5898L74.8242 78.457V78.8672L74.4141 79.2188L74.2383 79.2773H73.3594L72.5977 79.043L72.8906 79.3945V79.6875L72.5977 80.0391L71.8945 80.3906L71.7188 80.4492H71.0742L70.8984 80.2148L70.7812 79.9805L70.6055 79.9219L70.4883 80.2148L70.1953 80.1562L70.3125 79.8633L70.5469 79.3945L70.7227 78.8086L71.8945 78.9844L72.0117 79.5117L72.1875 79.4531V78.9844L72.7148 78.75L74.0625 78.2227Z" fill="#F1DCD8"/>
<path d="M22.0898 58.418L22.5 58.4766L23.0273 58.8281L23.3789 59.2383L23.6719 59.8828L23.9062 60.8203L24.0234 61.875V62.2852L23.7891 62.168L23.2617 61.582L22.8516 61.1133L22.2656 60.4102L21.8555 59.7656L21.7383 59.4141V58.7695L21.9727 58.4766L22.0898 58.418Z" fill="#F3DEDC"/>
<path d="M86.0156 30.293L86.6602 30.3516L87.3047 30.5859L87.9492 30.9961L88.418 31.4648L88.8867 32.4023L89.0039 32.9883V33.5742L88.7695 34.5117L88.3008 35.332L87.8906 35.8008L87.2461 36.2695L86.4844 36.6211L86.0156 36.7383H84.9023L84.1406 36.4453L83.4961 35.9766L83.0273 35.3906L82.6758 34.6289L82.5586 34.043V33.457L82.793 32.6367L83.2031 31.9336L83.7305 31.3477L84.1992 30.9375L85.1367 30.4688L86.0156 30.293ZM85.8984 30.5273L85.3711 30.5859L84.4336 31.0547L83.9062 31.4648L83.4961 31.9336L83.4375 32.168L83.2617 32.2266L83.0273 32.6953L82.8516 33.1641L82.7344 33.9258L83.0273 34.8633L83.2617 35.332L83.6719 35.8594L84.4336 36.3281L84.9023 36.5039H85.957L86.7188 36.2695L87.3633 35.918L87.7148 35.625V35.5078L87.8906 35.4492L88.3594 34.8047L88.5352 34.4531L88.7109 33.9258L88.7695 33.5156V32.8711L88.6523 32.3438L88.3594 31.7578H88.2422L88.1836 31.5234L87.6562 31.0547L87.3047 30.8203L86.6602 30.5859L85.8984 30.5273Z" fill="#F8E9E6"/>
<path d="M85.3711 83.0273L85.7812 83.0859L86.0156 83.3789L86.1328 83.4375V83.5547L86.3672 83.6719L86.9531 84.2578L87.8906 85.0781L88.2422 85.4883L88.3594 85.5469V85.6641L88.5938 85.7812L88.7109 86.0156H88.8867L89.0039 86.1914L89.1797 86.25L89.5312 86.6602L89.6484 86.7188V86.8359L89.8828 86.9531L90.3516 87.4219L90.4102 87.9492L90.0586 88.3594H89.6484L88.4766 87.4219L88.2422 87.3047L88.0078 87.0703V86.9531L87.7148 86.8359L87.4219 86.4844L87.0117 86.1328V86.0156L86.7773 85.8984L86.3672 85.5469V85.4297L86.1328 85.3711L85.7812 84.9609L85.3125 84.5508L84.9023 84.082L84.8438 83.9648V83.4961L85.1367 83.1445L85.3711 83.0273ZM85.3711 83.2617L85.0195 83.5547L85.0781 83.9648L86.0156 84.9023L86.4844 85.3125L86.9531 85.7812L87.4219 86.1914L88.2422 86.9531L89.0625 87.5977L89.5312 88.0078L89.8242 88.1836L90.1172 88.125L90.2344 87.9492L90.1758 87.5391L89.7656 87.1289L89.2969 86.7188L88.5352 86.0156L88.0664 85.6055L87.5391 85.0781L87.0703 84.668L86.6016 84.1992L86.1328 83.7891L85.6055 83.2617H85.3711Z" fill="#F8E9E6"/>
<path d="M67.0312 39.2578L67.3242 39.4336L68.0273 40.0781L68.6719 40.7812L69.4336 41.8359L70.0195 42.8906L70.4297 43.7695L70.7812 44.9414L70.957 45.8203L71.0156 46.4062V47.8711L70.7812 49.043L70.6641 49.3359H70.6055V46.8164L70.4883 45.6445L70.1953 44.4141L69.6094 43.0078L68.9648 41.7188L68.3789 40.8398L67.8516 40.1953L67.0312 39.375V39.2578Z" fill="#F1DBD7"/>
<path d="M50.6836 35.332L51.4453 35.3906L52.0898 35.625L52.4414 35.8594L52.793 36.2695L52.9688 36.6211L53.0273 36.9141V37.3242H52.9102L52.7344 36.5625L52.4414 36.0938L51.9727 35.8008L51.6211 35.6836H50.6836L49.7461 35.918L48.9258 36.3281L48.3398 36.8555L47.9883 37.2656L47.6953 37.9102L47.6367 38.2031V38.8477L47.8125 39.6094L48.1641 40.3125L48.3398 40.5469L48.2812 40.6641L47.8125 40.1367L47.4023 39.3164L47.2852 38.8477V37.6758L47.6953 36.8555L48.0469 36.4453L48.75 35.918L49.4531 35.5664L50.1562 35.3906L50.6836 35.332Z" fill="#F6E6E2"/>
<path d="M47.9297 79.7461H48.6914L50.0391 79.8633L50.625 80.2734L51.2109 80.4492L51.5039 80.5664L51.3281 80.918L51.0352 81.1523H50.332L50.1562 80.9766L50.0977 80.2734L49.8633 80.332L49.5703 80.8594H48.5742L48.1055 80.625L47.8711 80.2148V79.8633L47.9297 79.7461Z" fill="#F1DBD8"/>
<path d="M67.207 58.0664L67.3828 58.125L67.6172 58.7109L67.8516 59.4727L68.4375 61.3477L68.7305 62.168L68.9648 62.6367L69.082 62.9297L69.668 64.1602L69.9023 64.5117L70.1367 64.9805L70.2539 65.0391L71.4258 65.0977L72.4219 65.0391L73.2422 64.8633L73.7695 64.6875L74.707 64.2773L75.4102 63.9258L75.9961 63.5156L76.9922 62.8125L77.5195 62.3438H77.6367V62.2266L78.1641 61.875L78.0469 62.1094L77.3438 62.8125L76.2305 63.6328L75.293 64.2188L74.4141 64.6875L73.3008 65.0977L72.1289 65.332H70.7812L70.1367 65.2734L69.7266 64.6875L68.8477 62.9883L68.3789 61.8164L67.207 58.3008V58.0664Z" fill="#F1DCD7"/>
<path d="M53.0273 49.5117L53.2031 49.5703L53.4375 49.8633L53.9648 50.0391L54.7266 49.8047H55.3125L55.7227 50.0391L55.8984 50.4492L55.8398 50.9766L55.5469 51.3281L55.1367 51.4453L54.7266 51.3867L54.375 51.0938L54.3164 50.9766V50.5078L54.4336 50.332H53.7891L53.3203 50.0977L53.0273 49.7461V49.5117Z" fill="#2F2E2F"/>
<path d="M50.9766 21.3867L51.3281 21.6797L51.7969 22.3828L52.5 23.3203L53.3203 24.4336L53.5547 24.8438L53.2617 24.9609L50.918 25.4883L50.4492 25.5469L50.625 24.2578L50.8594 22.3242L50.918 21.5039L50.9766 21.3867ZM51.1523 22.1484L51.0938 22.207L50.8008 24.5508L50.7422 24.7266V25.1953L50.8594 25.3125L51.7383 25.0781L53.0273 24.7852L53.1445 24.5508L52.2656 23.3789L51.6797 22.6172L51.3281 22.1484H51.1523Z" fill="#F7E8E6"/>
<path d="M98.5547 59.8828H98.6719L98.5547 60.1172H98.3789V60.2344L98.6719 60.293L98.9062 60.5273L99.1406 60.9375V61.6992L98.9062 62.2266L98.6133 62.5195L98.4375 62.5781V62.6953L97.9688 62.9297H96.9141L96.4453 62.6953L96.0352 62.4609L96.0938 62.6953L95.5664 62.8711L95.2148 63.0469H94.5703L94.6289 63.2812L94.5703 63.6328L94.5117 64.1602L94.7461 65.1562L95.0391 66.0352L95.0977 66.5625H94.9805L94.6289 65.625L94.3359 64.5703L94.2773 64.2773V62.8125L95.2734 62.7539L95.8594 62.4609L96.0938 62.168L96.3281 62.2852L96.6211 62.5195L97.0898 62.6953H97.9688L98.3789 62.4609L98.7305 62.0508L98.9062 61.582V61.0547L98.7305 60.5859L98.6133 60.4688L97.9102 60.3516L97.793 60.1172L98.4375 59.9414L98.5547 59.8828Z" fill="#F7E8E4"/>
<path d="M80.2734 88.6523L80.5664 88.7109L81.7969 89.5312L83.1445 90.4102L83.7891 90.8203V90.9961L83.0273 91.5234L82.207 92.1094L81.5039 92.6367L81.3867 92.5781L80.4492 89.2969L80.2734 88.6523ZM80.7422 89.2383L80.8008 89.707L81.0352 90.5273L81.2109 91.2305L81.4453 92.0508L81.5625 92.168L81.8555 92.1094L82.207 91.875V91.7578L82.5 91.6406L83.0859 91.1719L83.3203 90.9375L83.2617 90.7031L82.6172 90.3516L81.9727 89.8828L81.3281 89.4727L80.9766 89.2383H80.7422Z" fill="#F7E8E5"/>
<path d="M30.1758 79.1602H30.7617L30.6445 79.3945L30.0586 80.0977L29.4141 80.918L28.6523 81.8555L28.3594 82.2656L28.125 82.0312L27.5391 81.0938L26.9531 80.2148L26.7773 79.8633L27.7148 79.6289L29.1211 79.3359L30.1758 79.1602ZM29.5898 79.4531L27.6562 79.8633L27.2461 80.0391L27.3633 80.3906L28.125 81.6211L28.5352 81.6797L28.9453 81.1523V81.0352H29.0625L29.1797 80.7422H29.2969L29.8242 80.0391V79.9219L30 79.8633L30.1758 79.6289V79.4531H29.5898Z" fill="#F8E9E7"/>
<path d="M45.9375 58.3594H47.5781L47.5195 58.4766L47.3438 58.5352L44.707 58.6523L42.9492 58.8867L41.8945 59.2383L41.3086 59.6484L41.0742 60.1172L40.957 60.7617V61.5234L41.0742 61.9922L41.3086 62.4609L41.7773 63.0469L42.3047 63.3398V63.457L42.832 63.6328L43.1836 63.8672V63.9844L42.8906 63.9258L42.0703 63.5156L41.4844 63.0469L41.0742 62.5195L40.8398 62.0508L40.7227 61.4062L40.7812 60.4102L40.957 59.8242L41.3086 59.3555L41.8945 59.0039L42.4805 58.7695L43.5352 58.5352L44.5312 58.418L45.9375 58.3594Z" fill="#F1DBD6"/>
<path d="M63.3398 95.2148L63.5742 95.332L64.5703 97.207L65.2734 98.4961L65.332 98.7305L64.9219 98.8477L63.5742 98.9648L62.5195 99.082L62.5781 98.5547L63.1055 96.3867L63.3398 95.2148ZM63.457 95.8008L63.3984 95.8594L63.2227 96.8555L62.9883 97.8516L62.8125 98.4375V98.7305L62.8711 98.7891H63.3398L63.6914 98.7305L64.6875 98.6719L64.9805 98.5547L64.9219 98.2617L64.3945 97.3828L64.2773 97.0898L63.75 96.0938L63.5742 95.8594L63.457 95.8008Z" fill="#F7E8E6"/>
<path d="M65.1562 53.0273H65.4492L65.5664 53.2031L65.5078 53.7305L65.2734 53.9648L65.2148 54.1992L64.8633 54.4336L64.1016 54.4922L63.6328 54.082L63.6914 53.5547L63.8672 53.3203L64.1016 53.2031L65.1562 53.0273Z" fill="#F3DEDC"/>
<path d="M65.0391 49.9219H65.4492L65.7422 50.2734L65.8594 50.332H66.2695L66.8555 50.0391L66.7383 50.3906L66.3867 50.625L65.8594 50.6836L65.3906 50.5078L65.5078 50.8594L65.4492 51.3281L65.2148 51.5039H64.8047L64.3945 51.2695L64.2188 50.9766V50.4492L64.3359 50.2148L64.7461 49.9805L65.0391 49.9219Z" fill="#2F2E2F"/>
<path d="M78.8672 75.1172L79.043 75.293L79.1016 76.1719H78.1055L78.2227 76.4648L78.1641 76.8164L77.8125 77.1094L77.6367 77.168H76.9922L76.8164 76.8164V76.5234L77.0508 76.2305L77.2852 75.9961L77.8125 75.8789L78.3398 75.5859L78.6914 75.293L78.8672 75.1172Z" fill="#F2DCD9"/>
<path d="M55.7812 53.0859H56.1328L56.3086 53.2031L56.3672 53.9648L56.1914 54.4922L55.7812 54.7266H55.3711L55.1367 54.668L55.0781 54.4336L54.8438 54.3164L54.7852 53.9062L55.0195 53.4375L55.2539 53.2031L55.7812 53.0859Z" fill="#F3DEDC"/>
<path d="M61.0547 36.9141L61.5234 37.2656L62.0508 37.7344L63.1055 38.4961L64.043 39.082L65.2734 39.7852L66.1523 40.3711L65.9766 40.4297L64.5703 39.8438L63.6328 39.375L63.0469 39.0234L62.2852 38.4375L61.875 38.0859L61.3477 37.4414L61.0547 37.0312V36.9141Z" fill="#F0D9D4"/>
<path d="M77.2266 23.9648L77.5195 24.0234L79.043 24.7266H79.3359L79.4531 24.668L79.3945 24.8438L79.1602 24.9609L78.8672 24.9023L77.8711 24.4922L77.4609 24.2578L77.2852 24.3164L76.9922 25.0781L76.6992 25.7227L76.0547 27.3047L75.7617 28.0078L75.3516 29.0039L75.1172 29.5898L74.8242 30.0586L74.5312 30.293L74.1797 30.2344V30.1172L74.5898 30L74.9414 29.2969L75.8789 27.0117L76.6406 25.1953L77.1094 24.082L77.2266 23.9648Z" fill="#F8E9E7"/>
<path d="M45.6445 78.6328L45.9375 78.75L46.8164 79.2188L47.5781 79.5117L47.4609 79.7461L46.875 80.0977L46.582 80.2148H45.9961L45.7031 79.9219L45.5859 79.5117V78.75L45.6445 78.6328Z" fill="#F2DCD9"/>
<path d="M22.0898 58.418L22.5 58.4766L23.0273 58.8281L23.3789 59.2383L23.6719 59.8828L23.9062 60.8203L24.0234 61.875V62.2852L23.7891 62.168L23.2617 61.582L22.8516 61.1133L22.2656 60.4102L21.8555 59.7656L21.7383 59.4141V58.7695L21.9727 58.4766L22.0898 58.418ZM22.1484 58.6523L21.9141 58.8867V59.2969L22.3828 60.2344L22.8516 60.8203H22.9688L23.0859 61.1133L23.2617 61.1719L23.3789 61.4062L23.6719 61.582L23.7891 61.4648V61.0547L23.5547 60.1172L23.3203 59.5312L23.0859 59.1797H22.9688L22.8516 58.9453L22.5586 58.7109L22.1484 58.6523Z" fill="#F7E8E5"/>
<path d="M94.2188 62.8125L94.3359 62.8711V64.2773L94.5703 65.2734L94.9219 66.3281V66.6211L94.7461 66.7383L94.4531 66.4453L94.1602 65.8594L93.9258 65.1562L93.8672 64.8047V63.457L93.9844 63.0469L94.2188 62.8125Z" fill="#2F2E2F"/>
<path d="M35.3906 84.6094L35.625 84.7266L36.0352 85.1367L36.5039 85.8984L36.6211 86.1914V86.8945L36.3281 87.3633L35.9766 87.5977H35.2734L34.6875 87.2461L33.6914 86.25V86.0156L34.5117 85.3125L34.9805 84.9023L35.3906 84.6094ZM35.4492 84.9023L35.0977 85.0781L34.4531 85.6641L34.2188 85.7812V85.8984L33.9258 86.0156V86.25L34.2773 86.543L34.6289 86.9531L34.9219 87.0703V87.1875L35.2734 87.3633H35.918L36.3281 87.0117L36.4453 86.7188L36.3867 86.1328L35.918 85.3125L35.625 85.0195H35.5078L35.4492 84.9023Z" fill="#F8EAE8"/>
<path d="M63.1055 94.043L63.1641 94.2188L62.8125 94.9219L61.6992 99.2578L61.4062 100.488L61.3477 101.191L61.4062 101.309L61.6406 101.426L61.2891 101.484L61.1133 101.191L61.1719 100.312L61.5234 98.8477L61.9922 97.0898L62.5195 94.9219L62.8711 94.2188L63.1055 94.043Z" fill="#F7E8E5"/>
<path d="M53.2031 49.4531L53.4961 49.6289L53.8477 49.8047L54.4922 49.6875L54.8438 49.5703H55.2539L55.7227 49.8047L56.0156 50.1562L56.0742 50.3906V50.8008L55.8984 51.2695L55.6055 51.5039L55.3125 51.6211H54.7852L54.4336 51.4453L54.1992 51.1523L54.082 50.625L53.3203 50.332L52.9688 49.9805L52.9102 49.5703L53.4375 50.0977L53.7891 50.2734H54.4922L54.375 50.5078V50.9766L54.6094 51.2695L54.9023 51.3867L55.4297 51.3281L55.7227 51.0938L55.8398 50.7422L55.7812 50.2148L55.4883 49.9219L55.3125 49.8633H54.7266L53.9062 50.0977L53.4375 49.9219L53.1445 49.5703L53.2031 49.4531Z" fill="#F0D9D3"/>
<path d="M47.1094 91.8164L47.4023 91.875L47.168 91.9922L46.875 92.8711L46.2891 94.8633L45.6445 96.9727L45.293 98.0273L45.2344 98.3789L45.0586 98.3203V97.9102L45.4102 96.7969L45.6445 95.9766L46.2305 94.1602L46.6406 92.6953L46.875 91.9922L47.1094 91.8164Z" fill="#F7E8E5"/>
<path d="M53.3789 57.5977H53.5547L53.4961 57.8906L53.2617 58.5352H53.0859L53.2031 57.8906L52.6172 57.9492L52.207 58.0078L49.1602 58.418L48.3984 58.4766H47.5195L47.3438 58.3008L49.2773 58.125L52.6172 57.7148L53.3789 57.5977Z" fill="#F0D9D3"/>
<path d="M25.6641 58.3008H25.7812L25.7227 58.8867L25.3125 60.0586L24.668 61.6992H24.5508V61.1719L24.7266 60.293L25.1367 59.1797L25.4883 58.5352L25.6641 58.3008Z" fill="#F6E6E2"/>
<path d="M65.0391 49.7461L65.4492 49.8047L65.5664 49.9219L64.7461 50.0391L64.4531 50.2148H64.3359L64.2773 50.4492V50.9766L64.3945 51.2695L64.6875 51.3867L64.8047 51.4453H65.2148L65.3906 51.3281L65.4492 50.8594L65.332 50.5078L65.4492 50.4492L65.8594 50.625L66.3867 50.5664L66.6797 50.3906L66.8555 50.0391H66.9141V50.4492L66.5039 50.8008L66.3867 50.8594L65.7422 50.918L65.5664 51.3867L65.2734 51.6797H64.6875L64.3359 51.5039V51.3867H64.2188L64.043 51.0352V50.5078L64.1602 50.2148L64.3945 49.9219L64.6289 49.8047L65.0391 49.7461Z" fill="#F1DAD5"/>
<path d="M69.082 34.9805H70.0195L70.0781 35.0977L69.1992 35.2148L68.6719 35.4492L68.0859 35.918L67.6758 36.5625L67.5 37.0312L67.3828 37.6172H67.2656L67.207 37.5V36.9727L67.4414 36.2109L67.793 35.6836L68.2617 35.2734L68.8477 35.0391L69.082 34.9805Z" fill="#F5E4E0"/>
<path d="M75.1758 22.0898L75.5859 22.1484L76.4062 22.5L77.2852 22.9102L78.6328 23.4961L79.3359 23.8477L79.5703 24.1406L79.5117 24.4336L79.3945 24.1992L78.9258 23.9062L77.168 23.1445L75.4688 22.3828L75 22.3242L75.0586 22.1484L75.1758 22.0898Z" fill="#F7E8E5"/>
<path d="M61.875 52.9688L61.9336 53.1445L61.4062 53.7305L60.9375 53.9648L60.5273 54.082H59.9414L59.2969 53.8477L58.9453 53.6133L58.5938 53.2031L58.6523 53.0273L59.1211 53.3789L59.8242 53.6719H60.7031L61.4062 53.3203L61.875 52.9688Z" fill="#2F2E2F"/>
<path d="M67.0312 39.2578L67.3242 39.4336L68.0273 40.0781L68.6719 40.7812L69.4336 41.8359L69.8438 42.5391V42.7148H69.6094L69.4922 42.7734L68.7891 41.4258L68.2031 40.6055L67.5586 39.9023L67.0312 39.375V39.2578Z" fill="#F5E4E0"/>
<path d="M78.1055 61.875V62.0508L77.3438 62.8125L76.2305 63.6328L75.293 64.2188L74.4141 64.6875L73.4766 65.0391L73.2422 64.9805L73.3008 64.8633L74.2383 64.5117L75.1758 64.043L75.8203 63.6328L76.9336 62.8711L77.5195 62.3438H77.6367V62.2266L77.9883 61.9922L78.1055 61.875Z" fill="#F3DFDB"/>
<path d="M76.4062 77.2852L76.6406 77.3438L76.6992 77.5195L76.5234 77.9297L76.3477 78.1055L75.8203 78.2227H75.1172L74.8242 78.0469L74.8828 77.9297L75.8789 77.5781L76.4062 77.2852Z" fill="#F1DAD5"/>
<path d="M61.9922 52.9688L62.1094 53.2031L61.875 53.5547L61.4062 53.9648L60.7031 54.2578L60.1172 54.3164L59.2969 54.1406L58.7695 53.7891V53.6719H58.6523L58.5352 53.4375V53.2031H58.6523L59.0625 53.6719L59.707 53.9648L59.9414 54.0234H60.5273L61.1133 53.8477L61.582 53.4961L61.9922 52.9688Z" fill="#F0D9D3"/>
<path d="M58.5352 40.7227L58.6523 40.7812L58.0078 41.543L57.3047 42.1289L55.8984 43.0664L54.9609 43.7109L54.8438 43.6523L55.3711 43.1836L57.5977 41.543L58.1836 41.0156L58.5352 40.7227Z" fill="#F2DFD8"/>
<path d="M56.7188 37.0898L56.9531 37.1484L56.4844 37.3242L55.1367 37.793L54.1992 38.2031L53.1445 38.8477L52.6172 39.3164V39.1406L53.0273 38.6719L53.6133 38.2617L54.9609 37.6172L56.1914 37.207L56.7188 37.0898Z" fill="#F4E2DC"/>
<path d="M71.3086 35.6836L71.543 35.7422L71.9531 36.1523L72.4219 36.9727L72.5977 37.5L72.6562 37.9688V38.6719L72.5391 39.3164L72.2461 39.9023L72.1875 39.7266L72.3633 39.1992L72.4219 38.8477V37.9102L72.2461 37.207L71.8359 36.3867L71.4258 35.8594L71.3086 35.6836Z" fill="#F4E1DC"/>
<path d="M53.0859 58.5352H53.2031L53.0273 59.1211L52.5586 60.0586L52.0898 60.9375L51.2109 62.3438L50.9766 62.4609L51.0352 62.2266L51.3867 61.6406L52.0312 60.5859L52.5586 59.6484L52.9688 58.6523L53.0859 58.5352Z" fill="#F1DAD5"/>
<path d="M62.9297 40.2539L63.2227 40.3125L64.2773 40.8984L65.625 41.6602L66.6211 42.3633L66.8555 42.6562L66.5625 42.5391L65.7422 42.0117L64.1016 41.0742L63.1641 40.4883L62.9297 40.2539Z" fill="#F4E2DC"/>
<path d="M64.1602 56.4258H64.2773V56.6016L63.1641 57.0117L61.8164 57.3633L60.7031 57.5391H60.3516L60.5273 57.3047L61.5234 57.1875L62.7539 56.8945L64.1602 56.4258Z" fill="#F0DAD4"/>
<path d="M98.4961 57.0703L99.0234 57.3047L99.4336 57.7148L99.6094 58.0664L99.668 58.3594V58.8281L99.4336 59.4141L98.9648 59.8828L98.7891 59.8242L99.3164 59.1211L99.4336 58.6523L99.375 58.125L99.082 57.6562L98.7891 57.4219L98.2617 57.3633H97.9688L98.0273 57.1875L98.4961 57.0703Z" fill="#F8EAE8"/>
<path d="M61.5234 36.3281L62.1094 36.3867L63.8672 36.9727L64.7461 37.3242L64.9219 37.5L64.4531 37.4414L62.6953 36.8555L61.6992 36.5039L61.5234 36.3281Z" fill="#F3E0DA"/>
<path d="M40.7812 61.2305H40.8398V61.5234H40.957L41.0742 61.9922L41.3086 62.4609L41.7773 63.0469L42.3047 63.3398V63.457L42.832 63.6328L43.1836 63.8672V63.9844L42.8906 63.9258L42.0703 63.5156L41.4844 63.0469L41.0742 62.5195L40.8398 62.0508L40.7812 61.8164V61.2305Z" fill="#F2DCD8"/>
<path d="M61.4648 53.0273H61.6992L61.582 53.2617L60.9961 53.6133L60.7031 53.7305H59.8242L59.1211 53.4375L58.8867 53.2617V53.0859L59.2969 53.2031L59.707 53.4375L60.4102 53.4961L60.9961 53.3203L61.4648 53.0273Z" fill="#F0D9D4"/>
<path d="M45.9375 58.3594H47.5781L47.5195 58.4766L47.3438 58.5352L46.3477 58.5938H45.0586L44.4141 58.5352L44.5312 58.418L45.9375 58.3594Z" fill="#F1DBD6"/>
<path d="M57.4805 57.1875L58.125 57.2461L59.9414 57.3633H60.3516V57.5391H58.7109L57.5391 57.3633L57.4805 57.1875Z" fill="#F2DCD8"/>
<path d="M41.8945 59.0039L42.0703 59.0625V59.1797L41.6016 59.4141L41.3086 59.6484L41.0742 60.1172L40.957 60.7617L40.8984 61.5234L40.7227 61.4062L40.7812 60.4102L40.957 59.8242L41.3086 59.3555L41.8945 59.0039Z" fill="#F0D9D3"/>
<path d="M95.6836 59.1211H95.9766L96.1523 59.2969L96.0938 59.707L95.918 59.8242L95.5078 59.7656L95.3906 59.5898L95.4492 59.2969L95.6836 59.1211Z" fill="#F1DAD4"/>
<path d="M73.2422 64.8633L73.3008 65.0977L72.1289 65.332H70.7812V65.2734L71.4258 65.2148L71.4844 65.0977L72.832 64.9805L73.2422 64.8633Z" fill="#EFD7CF"/>
<path d="M56.7188 37.0898L56.9531 37.1484L56.4844 37.3242L55.1367 37.793L54.7266 37.9688L54.4922 37.9102L54.5508 37.793L55.7812 37.3242L56.7188 37.0898Z" fill="#F5E4DF"/>
<path d="M69.668 64.3359L69.8438 64.3945L70.1367 64.9805L70.2539 65.0391L71.4258 65.1562L71.4844 65.2734H70.1367L69.7266 64.6875L69.668 64.3359Z" fill="#F5E2E0"/>
<path d="M65.918 55.6055L65.9766 55.7812L64.8633 56.3672L64.4531 56.543H64.2773L64.3945 56.3086L65.332 55.8398L65.918 55.6055Z" fill="#F1DCD8"/>
<path d="M74.8242 64.2188L75.1172 64.2773L74.8828 64.4531L73.8281 64.9219L73.4766 65.0391L73.2422 64.9805L73.3008 64.8633L74.2383 64.5117L74.8242 64.2188Z" fill="#F1DAD5"/>
<path d="M72.4805 37.7344H72.5977L72.6562 37.9688V38.6719L72.5391 39.3164L72.2461 39.9023L72.1875 39.7266L72.3633 39.1992L72.4219 38.8477L72.4805 37.7344Z" fill="#F3DFD9"/>
<path d="M51.9141 60.8203H52.0312L51.9727 61.1133L51.2109 62.3438L50.9766 62.4609L51.0352 62.2266L51.3867 61.6406L51.9141 60.8203Z" fill="#F2DDD9"/>
<path d="M65.0391 49.7461L65.4492 49.8047L65.5664 49.9219L64.7461 50.0391L64.4531 50.2148H64.3359L64.2188 50.918H64.1602L64.1016 50.2734L64.3945 49.9219L64.6289 49.8047L65.0391 49.7461Z" fill="#EFD8D1"/>
<path d="M70.8398 47.5781H70.957V48.2812L70.7227 49.2773L70.6055 49.3359V48.5742L70.7812 47.9297L70.8398 47.5781Z" fill="#F4E1DB"/>
<path d="M66.3867 45.6445L66.9141 45.7617L67.7344 46.1133L67.793 46.2305L67.3242 46.1719L66.2695 45.8789L66.3867 45.6445Z" fill="#F5E4DF"/>
<path d="M67.207 58.0664L67.3828 58.125L67.6172 58.7109L67.8516 59.4727L67.793 59.6484H67.6758L67.207 58.3008V58.0664Z" fill="#F1DBD7"/>
<path d="M67.207 80.332L67.5 80.3906L67.5586 80.4492V80.918L67.207 80.9766L67.0898 80.8594V80.4492L67.207 80.332Z" fill="#2F2E2F"/>
<path d="M52.207 35.7422L52.4414 35.8594L52.793 36.2695L52.9688 36.6211L53.0273 36.9141V37.3242H52.9102L52.7344 36.5625L52.4414 36.0938L52.0898 35.8594L52.207 35.7422Z" fill="#F2DED7"/>
<path d="M46.582 77.3438L46.875 77.4023L46.7578 77.6953L46.2891 77.9297H46.1133L46.1719 77.6953L46.4648 77.4023L46.582 77.3438Z" fill="#2F2E2F"/>
<path d="M78.1055 61.875V62.0508L77.3438 62.8125L77.0508 63.0469L76.875 62.9883L77.168 62.6367L77.5195 62.3438H77.6367V62.2266L77.9883 61.9922L78.1055 61.875Z" fill="#F5E3E1"/>
<path d="M64.8047 80.7422L65.0391 80.8008V81.2109L64.8047 81.4453L64.6289 81.3867V80.9766L64.8047 80.7422Z" fill="#2F2E2F"/>
<path d="M59.7656 40.6641L60 40.7812L60.0586 41.0156L60 41.1914L60.4102 41.7773L60.4688 42.0117L60.293 41.9531L59.8242 41.1914L59.7656 40.6641Z" fill="#F5E3DE"/>
<path d="M53.7305 79.2188L53.9648 79.3359L53.9062 79.6875L53.7891 79.8633H53.5547L53.4961 79.4531L53.7305 79.2188Z" fill="#2F2E2F"/>
<path d="M61.0547 36.9141L61.5234 37.2656L61.875 37.6172V37.9102L61.6406 37.793L61.1133 37.1484L61.0547 36.9141Z" fill="#F3E0DA"/>
<path d="M65.625 49.9219L65.918 50.0977H66.6211L66.5625 50.2734L66.2695 50.3906H65.8594L65.625 50.2148V49.9219Z" fill="#EFD8D1"/>
<path d="M62.9297 40.2539L63.2227 40.3125L64.2773 40.8984L64.2188 41.0742L63.9258 40.957L63.1641 40.4883L62.9297 40.2539Z" fill="#EFD8CE"/>
<path d="M65.0977 39.8438L65.4492 39.9023L66.1523 40.3711L65.9766 40.4297L65.0977 40.0781L65.0391 39.9023L65.0977 39.8438Z" fill="#F4E1DC"/>
<path d="M49.043 78.457L49.2773 78.5156L49.3945 78.6914L49.3359 78.9844H48.9844L48.9258 78.9258V78.5742L49.043 78.457Z" fill="#2F2E2F"/>
<path d="M51.3867 78.9258H51.6211L51.5625 79.2188L51.4453 79.3945L51.2109 79.4531L51.0352 79.2773L51.0938 79.043L51.3867 78.9258Z" fill="#2F2E2F"/>
<path d="M53.0859 58.5352H53.2031L53.0273 59.1211L52.793 59.6484H52.6172L52.6758 59.3555L53.0273 58.5938L53.0859 58.5352Z" fill="#F1DCD7"/>
<path d="M71.0156 77.5781H71.3086L71.4258 77.6953V77.9883L71.0156 78.0469L70.957 77.9883L71.0156 77.5781Z" fill="#2F2E2F"/>
<path d="M63.3984 79.1602L63.6914 79.2188L63.8086 79.4531V79.6289H63.3984L63.3398 79.5703V79.2188L63.3984 79.1602Z" fill="#2F2E2F"/>
<path d="M61.2891 80.0391L61.5234 80.0977L61.6406 80.4492L61.5234 80.5664L61.2305 80.5078L61.1719 80.1562L61.2891 80.0391Z" fill="#2F2E2F"/>
<path d="M42.3047 73.8867L42.5977 74.0039V74.3555L42.3633 74.4141L42.1875 74.2969L42.1289 74.0625L42.3047 73.8867Z" fill="#2F2E2F"/>
<path d="M89.2969 41.4844H89.6484L90 41.7188L90.0586 41.9531L89.9414 42.0117L89.8828 41.7773L89.5312 41.7188L89.1797 41.7773L89.2383 41.543L89.2969 41.4844Z" fill="#F6E5E1"/>
<path d="M56.25 79.8633L56.543 79.9219L56.4844 80.332L56.25 80.3906L56.1328 80.2734L56.1914 79.9219L56.25 79.8633Z" fill="#2F2E2F"/>
<path d="M68.5547 77.9297H68.7891L68.8477 78.2227L68.7305 78.457L68.4375 78.3984L68.4961 77.9883L68.5547 77.9297Z" fill="#2F2E2F"/>
<path d="M66.5625 78.6914L66.7969 78.75L66.8555 78.8672L66.6797 79.1602L66.4453 79.2188L66.3867 79.1602V78.8086L66.5625 78.6914Z" fill="#2F2E2F"/>
<path d="M65.8594 41.8945L66.1523 42.0117L66.7383 42.4805L66.8555 42.6562L66.5625 42.5391L65.7422 42.0117L65.8594 41.8945Z" fill="#EED5CA"/>
<path d="M78.457 61.1719H78.5156V61.5234L78.2227 61.9336L77.9883 62.0508L77.8125 62.168L77.9883 61.8164H78.1055L78.2227 61.5234L78.457 61.1719Z" fill="#F2DEDA"/>
<path d="M69.1992 63.457H69.3164L69.7266 64.2188L69.6094 64.4531L69.1406 63.5156L69.1992 63.457Z" fill="#F0D9D3"/>
<path d="M60.5273 57.3047H61.2305L61.1719 57.4805L60.3516 57.5391L60.5273 57.3047Z" fill="#EFD8D1"/>
<path d="M56.7188 37.0898L56.9531 37.1484L56.4844 37.3242L55.8398 37.5L55.7812 37.3242L56.7188 37.0898Z" fill="#E9CCBC"/>
<path d="M65.5078 56.7773L65.8008 56.8359L66.2109 57.5391L66.1523 57.6562L65.6836 57.0117L65.4492 56.8945L65.5078 56.7773Z" fill="#F6E5E1"/>
<path d="M75.3516 76.1719L75.5859 76.2305L75.7031 76.582L75.6445 76.6992L75.4102 76.6406L75.3516 76.5234V76.1719Z" fill="#2F2E2F"/>
<path d="M68.8477 62.7539L69.0234 62.8125L69.2578 63.2812L69.1992 63.5156L69.0234 63.3398L68.8477 62.9883V62.7539Z" fill="#F2DCD8"/>
<path d="M72.4219 38.8477L72.5977 38.9648L72.4805 39.4922L72.2461 39.9023L72.1875 39.7266L72.3633 39.1992L72.4219 38.8477Z" fill="#E7C8B6"/>
<path d="M73.7695 64.6875L74.0039 64.7461V64.8633L73.4766 65.0391L73.2422 64.9805L73.3008 64.8633L73.7695 64.6875Z" fill="#F3E0DC"/>
<path d="M75.7031 63.8086L75.8203 63.8672L75.293 64.2188L75 64.2773L75.0586 64.1016L75.4688 63.8672L75.7031 63.8086Z" fill="#F4E2DE"/>
<path d="M69.668 64.3359L69.8438 64.3945L70.0781 64.8633V65.1562L69.8438 64.8633L69.668 64.5703V64.3359Z" fill="#F2DEDA"/>
<path d="M53.1445 38.5547L53.2617 38.6133L52.9102 39.082L52.5586 39.3164L52.6758 39.0234L53.1445 38.5547Z" fill="#F2DFD8"/>
<path d="M68.2617 61.1719H68.3789L68.5547 61.6992L68.4961 61.9336L68.3789 61.8164L68.2031 61.2305L68.2617 61.1719Z" fill="#F1DCD7"/>
<path d="M78.9844 60H79.1016L78.9844 60.5273L78.8672 60.7031L78.75 60.6445L78.8086 60.3516L78.9844 60Z" fill="#F0D8D2"/>
<path d="M67.0312 39.2578L67.3242 39.4336L67.7344 39.7852L67.6172 39.9609L67.0312 39.375V39.2578Z" fill="#E9CCBC"/>
<path d="M73.0664 77.2852L73.418 77.3438L73.5352 77.5781L73.418 77.6367L73.0078 77.4609L73.0664 77.2852Z" fill="#2F2E2F"/>
<path d="M55.6055 37.3828H55.8984L55.7812 37.5586L55.1953 37.7344L55.1367 37.5586L55.6055 37.3828Z" fill="#F3DFD8"/>
<path d="M67.0898 45.8789L67.6172 46.0547L67.793 46.2305L67.3242 46.1719L66.9727 46.0547L67.0898 45.9961V45.8789Z" fill="#EED6CC"/>
<path d="M59.7656 40.6641L60 40.7812L60.0586 41.0156L60 41.25L59.8242 41.1914L59.7656 40.6641Z" fill="#F7E7E4"/>
<path d="M58.418 80.0391L58.6523 80.0977V80.4492L58.418 80.5078V80.0391Z" fill="#2F2E2F"/>
<path d="M52.2656 60.293H52.3828L52.2656 60.6445L52.0312 60.9375L51.9727 60.7031L52.207 60.3516L52.2656 60.293Z" fill="#F0D9D3"/>
<path d="M42.3047 58.5938H42.5977L42.5391 58.7695L42.0703 58.8867L42.0117 58.7109L42.3047 58.5938Z" fill="#F2DCD7"/>
<path d="M52.8516 36.5039L52.9688 36.6211L53.0273 36.9141V37.3242H52.9102L52.793 36.6211L52.8516 36.5039Z" fill="#E9CCBC"/>
<path d="M47.9297 40.0195L48.1055 40.1953L48.3398 40.5469L48.2812 40.6641L47.8125 40.1367L47.9297 40.0195Z" fill="#ECD2C6"/>
</g>
<defs>
<clipPath id="clip0_34_183">
<rect width="120" height="120" rx="60" fill="white"/>
</clipPath>
</defs>
</svg>
