<svg width="44" height="44" viewBox="0 0 44 44" fill="none" xmlns="http://www.w3.org/2000/svg">
<path d="M20.1243 2.06901C20.7686 0.327772 23.2314 0.327774 23.8757 2.06901L28.4331 14.3852C28.6357 14.9327 29.0673 15.3643 29.6148 15.5669L41.931 20.1243C43.6722 20.7686 43.6722 23.2314 41.931 23.8757L29.6148 28.4331C29.0673 28.6357 28.6357 29.0673 28.4331 29.6148L23.8757 41.931C23.2314 43.6722 20.7686 43.6722 20.1243 41.931L15.5669 29.6148C15.3643 29.0673 14.9327 28.6357 14.3852 28.4331L2.06901 23.8757C0.327772 23.2314 0.327774 20.7686 2.06901 20.1243L14.3852 15.5669C14.9327 15.3643 15.3643 14.9327 15.5669 14.3852L20.1243 2.06901Z" fill="#FFB1AE"/>
</svg>
